<svg xmlns="http://www.w3.org/2000/svg" viewBox="0 0 281.29 222"><defs><style>.cls-1{fill:#1d1d1b;}</style></defs><title>Ресурс 2</title><g id="Слой_2" data-name="Слой 2"><g id="Слой_1-2" data-name="Слой 1"><path class="cls-1" d="M62.29,91.7c0,.13,0,.2-.1.2s-.07.07,0,.2a5.18,5.18,0,0,0-2.15.05,6.29,6.29,0,0,0-1.85.75c.13.33.27.63.4.9a2,2,0,0,1,.2.9,3.24,3.24,0,0,0-.45-.7,2.85,2.85,0,0,1-.45-.8,16.65,16.65,0,0,0-1.5,1,1.7,1.7,0,0,0-.5,1.75.7.7,0,0,1-.5.45.72.72,0,0,0-.5.35,1.24,1.24,0,0,0-.4.9,1.77,1.77,0,0,1-.3.9,1.72,1.72,0,0,0,.75,1.05,3.86,3.86,0,0,1,1,.85.87.87,0,0,0,.25.65l.55.55a3.78,3.78,0,0,1,.5.6.86.86,0,0,1,0,.8,10.88,10.88,0,0,1-2.2-1.45,13.19,13.19,0,0,0-2.3-1.55.2.2,0,0,0-.1.3q.1.19,0,.3c-.4.07-.63,0-.7-.25a1,1,0,0,0-.4-.55c-.33-.07-.53,0-.6.1a.68.68,0,0,1-.4.3c-.33-.07-.53-.2-.6-.4a.64.64,0,0,0-.5-.4A3,3,0,0,0,47,96.9a.84.84,0,0,1,.75-.05,2.68,2.68,0,0,0,.85.15c.07-.07,0-.15-.05-.25a1.48,1.48,0,0,0-.35-.25,2,2,0,0,1-.8,0,1.14,1.14,0,0,1-.7-.25,1.09,1.09,0,0,1-.8.3,3.71,3.71,0,0,1-.85-.1,4.19,4.19,0,0,0-.95-.1,1.25,1.25,0,0,0-.7.2q-.11-.6-.9-.3c-.53.2-.87.27-1,.2s0-.17.15-.1.15,0,.15-.1q-.4-.19-.45,0a1.53,1.53,0,0,0-.05.3,16.69,16.69,0,0,1-2.45.8,9.53,9.53,0,0,0-2.35.9,1.8,1.8,0,0,1-.6-.1,1.57,1.57,0,0,0-.5.55,1.34,1.34,0,0,1-.6.55.45.45,0,0,1,.15-.4,2.7,2.7,0,0,0,.35-.3,8,8,0,0,0-1.65.55,1.4,1.4,0,0,0-.85,1.15,1,1,0,0,0,1-.25,3,3,0,0,1,.6-.55c.07.47-.18.78-.75,1a9,9,0,0,0-1.45.55,2.77,2.77,0,0,0-.55,1.2,1.87,1.87,0,0,1-.65,1.1v.6a4.66,4.66,0,0,0-.7,1.1,1.36,1.36,0,0,0-.3.65.44.44,0,0,1-.6.35,3.54,3.54,0,0,0-.05-1.8,3.54,3.54,0,0,1-.05-1.8,1.82,1.82,0,0,0-.6.75,2.76,2.76,0,0,1-.6.85c.13.13.23.2.3.2a1.48,1.48,0,0,0-1.25,1.1A1.44,1.44,0,0,1,26,106.4c-.13,0-.18-.07-.15-.2a.25.25,0,0,0-.15-.3,23.78,23.78,0,0,0-2.5.35,19.46,19.46,0,0,0-2.5.65,5.31,5.31,0,0,1,.85,1.1,3.61,3.61,0,0,0,.85,1,4.42,4.42,0,0,0,1.05,2,12.92,12.92,0,0,1,1.35,1.7,2.28,2.28,0,0,0,.2-1c.13.13.22.13.25,0s.12-.17.25-.1l.75,2.05a12.27,12.27,0,0,1,.55,2,.39.39,0,0,0,.4-.3c.13.13.15.22,0,.25a.92.92,0,0,1-.25,0,11.52,11.52,0,0,0,1,3.9c.53,1.13,1,2.27,1.5,3.4a29.15,29.15,0,0,1,1.3,4.1,10.81,10.81,0,0,0,1.7,3.8,8.21,8.21,0,0,1,.45,1.35,1.81,1.81,0,0,1-.15,1.25,4.63,4.63,0,0,0-1.6,1.25,7.8,7.8,0,0,1-1.4,1.35,4.71,4.71,0,0,1-.5,1.3v.8c-.13,0-.2,0-.2-.1H29c-.53.93-1,1.88-1.55,2.85a13.54,13.54,0,0,0-1.15,3.25c-.07.13,0,.2.1.2s.27.07.2.2-.32,0-.35.1a.54.54,0,0,1-.25.2,3.32,3.32,0,0,0,.35,1.15,2.57,2.57,0,0,1,.25,1.25,4.76,4.76,0,0,0,.85.65,1.35,1.35,0,0,1,.65,1,2.8,2.8,0,0,1,.1,1.3,8.79,8.79,0,0,0-.1,1.3A4.41,4.41,0,0,0,31,155a.4.4,0,0,0,.1.3,3.79,3.79,0,0,0,.35,1.5,9.4,9.4,0,0,1,.55,1.65,7,7,0,0,1,.2,1.55,1.5,1.5,0,0,1-.8,1.3,1.8,1.8,0,0,0-.1.6,4,4,0,0,1-.1.8,7.21,7.21,0,0,1-.35,1.15,11.32,11.32,0,0,0-.45,1.45,7.12,7.12,0,0,0-.25,1.5,7.12,7.12,0,0,1-.25,1.5c-.13.53-.27,1-.4,1.55s-.27,1-.4,1.55a3.25,3.25,0,0,0-.15.65,3.25,3.25,0,0,1-.15.65c-.13.4-.33.92-.6,1.55a2.65,2.65,0,0,0-.3,1.45,3.77,3.77,0,0,0,.45,1.05c.3.57.65,1.2,1.05,1.9s.78,1.35,1.15,1.95.65,1,.85,1.3a3.09,3.09,0,0,1-.7-.85c-.33-.5-.67-1.05-1-1.65l-1-1.7a2.84,2.84,0,0,0-.65-.9,32.54,32.54,0,0,0,1.75,4.2,36.24,36.24,0,0,0,2.25,3.9l.4.2.4.2c-.07.2-.18.27-.35.2a1.19,1.19,0,0,0-.45-.1c0,.27,0,1,.1,2.15s.13,2.43.2,3.8.12,2.62.15,3.75.05,1.83.05,2.1c0-.4,0-1.18-.1-2.35s-.15-2.38-.25-3.65-.2-2.42-.3-3.45-.25-1.62-.45-1.75a1,1,0,0,0-.1-1q-.3-.41-.6-.9A19.33,19.33,0,0,1,29,180.45a16.43,16.43,0,0,0-1.85-3.65,1.47,1.47,0,0,0-.3-1.2,6.38,6.38,0,0,0-.9-.9,4.05,4.05,0,0,0-.8-1.85c-.4-.5-.8-1-1.2-1.55a.4.4,0,0,0-.3-.1.4.4,0,0,1-.3-.1c.07-.13,0-.33-.1-.6A2.58,2.58,0,0,1,24.94,172a4.38,4.38,0,0,0,1.35,1.75,1.87,1.87,0,0,0,.65-1c.1-.43.22-.88.35-1.35-.07-.13-.15-.17-.25-.1s-.18,0-.25-.1c.13-.33.25-.6.35-.8l.35-.7a3,3,0,0,0-1.25,1,1.7,1.7,0,0,1-1.55.65c.73-.6,1.5-1.25,2.3-1.95a5.83,5.83,0,0,0,1.7-2.45,9.13,9.13,0,0,0,.45-1.65,4.63,4.63,0,0,1,.65-1.65c.07-.33.13-.73.2-1.2a8,8,0,0,1,.3-1.3,9.33,9.33,0,0,1-.3-1.15,9.33,9.33,0,0,0-.3-1.15c-.07-.13-.15-.15-.25,0s-.18.08-.25-.05a37.26,37.26,0,0,0-1.3-4.55A25.06,25.06,0,0,0,26,149.9c-.33-.53-.65-1.08-.95-1.65A8.44,8.44,0,0,0,24,146.7c-.2-.07-.3,0-.3.1s-.1.27-.3.2a3.52,3.52,0,0,1,.25-2.1,4.62,4.62,0,0,0,.35-2.3c0-.13,0-.2.1-.2a.4.4,0,0,0,.3-.1,16.69,16.69,0,0,0,.8-2.45,13.25,13.25,0,0,1,.8-2.35,1.05,1.05,0,0,0,.65-.6,1.05,1.05,0,0,1,.65-.6,10.07,10.07,0,0,0,.75-3.1,20.09,20.09,0,0,0-.05-3.7,4.09,4.09,0,0,0-.6-1.7,3,3,0,0,1-.4-1.9.69.69,0,0,1,.2.5.82.82,0,0,0,.2.6c.27-.27.3-.5.1-.7a1,1,0,0,1-.3-.7c0-.07-.07-.1-.2-.1a2.38,2.38,0,0,0-.3-1.15l-.55-1a1.9,1.9,0,0,1-.25-.95c0-.27.2-.53.6-.8-.13-.8-.28-1.62-.45-2.45a6,6,0,0,0-.85-2.15,1.74,1.74,0,0,0-.4-.3,1.74,1.74,0,0,1-.4-.3,6.6,6.6,0,0,1-1.65-2.3,20.17,20.17,0,0,0-1.35-2.6,9.53,9.53,0,0,0-.75-1,3.15,3.15,0,0,0-1.05-.85,3.23,3.23,0,0,0-1-1.1c-.4-.27-.77-.53-1.1-.8a4.67,4.67,0,0,0-1,.3,8.77,8.77,0,0,1-1.15.4.51.51,0,0,1,.4-.25c.2,0,.3-.12.3-.25a1.29,1.29,0,0,0-1.1.4c0,.13,0,.17,0,.1s.12-.07.25,0a1.25,1.25,0,0,1-.7.2,2.52,2.52,0,0,0-.8.1c-.13-.33-.45-.42-.95-.25a3,3,0,0,0-1,.45c0,.13.09.13.25,0s.25-.1.25.1a1.18,1.18,0,0,0-1,.6c0,.2,0,.3.1.3A8.93,8.93,0,0,0,9.84,112a18.92,18.92,0,0,1-1.45,2.3c-.06-.2.07-.47.4-.8a.84.84,0,0,0-.6.9,2.81,2.81,0,0,0-1,1.6,19.14,19.14,0,0,1-.7,2.1A5.4,5.4,0,0,1,6,119a3.1,3.1,0,0,0-.35.8,3.43,3.43,0,0,0-.05,1,.77.77,0,0,1-.35.75c0,.13,0,.15.15,0s.15-.08.15,0a.18.18,0,0,1-.2.2c-.2,0-.23.07-.1.2s0,.15.1,0a.45.45,0,0,0,.1-.25.35.35,0,0,1,0,.4,3.13,3.13,0,0,1-.35.4,1,1,0,0,1,0-.8,6.14,6.14,0,0,0,.25-.8,1.23,1.23,0,0,0-.8,1.7c.27.8.5,1.5.7,2.1a.18.18,0,0,1-.2.2.33.33,0,0,0-.3.2q.21,1.5.45,3.15a24.33,24.33,0,0,0,.65,3.05,7.71,7.71,0,0,1,0,1.8,6.27,6.27,0,0,0,.1,1.9,2.6,2.6,0,0,0,.25.75,1.25,1.25,0,0,1,.15.65,3.89,3.89,0,0,1-.6,1.6,2.46,2.46,0,0,0-.4,1.6,1.11,1.11,0,0,0,.4.85,2.31,2.31,0,0,1,.6.75,6.73,6.73,0,0,0,.1,1.2,2.35,2.35,0,0,0,.3.7,2.11,2.11,0,0,1,.3.6,2.57,2.57,0,0,1-.15.9,1.24,1.24,0,0,0,0,.9,1,1,0,0,1-.2-.7,7.38,7.38,0,0,0-.05-.9,7,7,0,0,0-.15-.95.88.88,0,0,0-.5-.65.69.69,0,0,1,.2-.5,3.93,3.93,0,0,0-.5-.9l-.6-.8a2.32,2.32,0,0,1,.1-1.2,4.75,4.75,0,0,0,.3-1,3.61,3.61,0,0,0,0-1.6c-.1-.53-.18-1.07-.25-1.6a5.43,5.43,0,0,1-.15-1.6A4.13,4.13,0,0,0,5,131.7a2,2,0,0,0-.35-.85,4.78,4.78,0,0,1-.45-.85,16.39,16.39,0,0,1-.6-2.55,10.22,10.22,0,0,0-.7-2.55c-.13.4-.26.92-.4,1.55s-.26,1.22-.4,1.75a16.76,16.76,0,0,0-.1,4.05,23.69,23.69,0,0,0,.9,4.25,25.28,25.28,0,0,1,.95,6.15Q4,146.1,4.19,149a3.17,3.17,0,0,1,0,1.15,6.63,6.63,0,0,0-.1,1,6.12,6.12,0,0,0,.25,1.65,5.75,5.75,0,0,1,.25,1.65,16.82,16.82,0,0,1-.6-3.9c-.06-1.47-.1-2.93-.1-4.4a.42.42,0,0,1,0-.25A.17.17,0,0,0,4,145.8a.85.85,0,0,0-.1-.4,1,1,0,0,1-.1-.4c-.06-.47-.11-.93-.15-1.4s-.05-.93-.05-1.4A40.26,40.26,0,0,0,3,138q-.39-2.05-.9-4c-.13-.53-.25-1.1-.35-1.7a7.47,7.47,0,0,1-.05-1.9c.14-1.2.32-2.38.55-3.55A5.56,5.56,0,0,0,2,123.5a6.52,6.52,0,0,0-1.7,3.6.47.47,0,0,1-.25-.65,6.59,6.59,0,0,1,.25-.65,7.77,7.77,0,0,1,.5-1c.2-.33.37-.63.5-.9s.07-.2,0-.2a.18.18,0,0,1-.2-.2,9.34,9.34,0,0,1,.4-1.25,3,3,0,0,0,.2-1.25,1,1,0,0,1,.25-.75,2.19,2.19,0,0,0,.45-.75,2.54,2.54,0,0,0,.25-.75,1.72,1.72,0,0,1,.25-.65A5.12,5.12,0,0,1,4,117a2.08,2.08,0,0,0,.7-1.75,2.14,2.14,0,0,0,1-1.5,3.73,3.73,0,0,1,.8-1.7.58.58,0,0,0,.25.15.23.23,0,0,1,.15.25,19.14,19.14,0,0,0,1.2-2.7,6.6,6.6,0,0,1,1.5-2.4c-.07-.27-.05-.43.05-.5a2.7,2.7,0,0,0,.35-.3,5.7,5.7,0,0,1,.2-.85,2.87,2.87,0,0,0,.1-1c.27,0,.34-.1.2-.3a.3.3,0,0,1,.3-.05.25.25,0,0,0,.3-.15,3.5,3.5,0,0,0,2.45.55,9.24,9.24,0,0,1,2.55,0c.14,0,.22,0,.25-.15a.5.5,0,0,1,.25-.25c.14,0,.22,0,.25.1s.12.1.25.1a12.24,12.24,0,0,1,.65-2.5c.3-.8.57-1.6.8-2.4a20.75,20.75,0,0,0,.55-2.4,7,7,0,0,0-.1-2.6c-.07-.13-.15-.1-.25.1s-.22.23-.35.1a2.77,2.77,0,0,1,1.4-1.7,2.44,2.44,0,0,0,1.3-1.7,9,9,0,0,0,2.6-2.7c.13-.27.28-.55.45-.85a7.53,7.53,0,0,0,.45-1c.27-.53.5-1,.7-1.5a4.34,4.34,0,0,0,.2-2c-.13-.13-.25-.18-.35-.15s-.22,0-.35-.15a4,4,0,0,0-.05-.6.33.33,0,0,1,.25-.4,2.8,2.8,0,0,0-.1.7c0,.13.17.23.5.3A17.47,17.47,0,0,0,24.54,80a16.58,16.58,0,0,1-.85-3.55,6,6,0,0,0-.25-1.2,2.7,2.7,0,0,0-.65-.9,6.31,6.31,0,0,0-2.4-2.1c-.13.07-.13.13,0,.2s.13.1,0,.1a1.17,1.17,0,0,1-1.2-.7,5.22,5.22,0,0,0,1,.25,2.31,2.31,0,0,1,1,.35,3.1,3.1,0,0,0,.3-1.4.88.88,0,0,0-.5-.25.33.33,0,0,0-.4.25c-.2-.4-.43-.47-.7-.2a.94.94,0,0,1-.9.3,1.94,1.94,0,0,0,.65-.5,1.3,1.3,0,0,1,.75-.4,4.72,4.72,0,0,0,.7-.9,2.36,2.36,0,0,1,.8-.8,1.35,1.35,0,0,1,.6-1.2,2.43,2.43,0,0,0,.9-1.2,4,4,0,0,0,.3-.9,4,4,0,0,1,.3-.9,1.63,1.63,0,0,1,.45-.6.66.66,0,0,0,.15-.7,1.25,1.25,0,0,0-1.25,0c-.3.23-.65.52-1.05.85a10.88,10.88,0,0,1-1.15.85,3.18,3.18,0,0,0-.95,1,.57.57,0,0,1,.1.4c-.33.33-.7.68-1.1,1.05a2.69,2.69,0,0,0-.8,1.45c0,.13,0,.22.1.25s.1.12.1.25a2,2,0,0,1-.5.7,1.92,1.92,0,0,0-1.05.65,6.06,6.06,0,0,1-.95,1,2.69,2.69,0,0,1-1.15.7,2.46,2.46,0,0,0-1,.6,5.76,5.76,0,0,0-1,1.6c-.33.73-.66,1.43-1,2.1l-.6,1.2a10.18,10.18,0,0,0-.5,1.2c-.33.8-.61,1.58-.85,2.35s-.45,1.62-.65,2.55a4.49,4.49,0,0,0-.4,1.4.58.58,0,0,0,.1.55.83.83,0,0,1,.2.55,3.85,3.85,0,0,1-.25,1.15,8.94,8.94,0,0,1-.45,1.15,2.76,2.76,0,0,1-.55,1,6.92,6.92,0,0,0-.65.9,4.06,4.06,0,0,0-.25.95,1,1,0,0,1-.25.65c-.13-.07-.15-.13,0-.2a.34.34,0,0,0,.15-.3,1,1,0,0,0-.4.65c-.06.3-.11.63-.15,1a8.29,8.29,0,0,1-.15,1,1.49,1.49,0,0,1-.4.8c.07-.33.15-.77.25-1.3a7.4,7.4,0,0,1,.35-1.3.77.77,0,0,0-.45.4,4.66,4.66,0,0,1-.35.6c-.13.33-.26.7-.4,1.1s-.3.83-.5,1.3c.2,0,.32-.07.35-.2s.15-.2.35-.2a1.89,1.89,0,0,1-.7.85.87.87,0,0,0-.3,1,2.27,2.27,0,0,0-.9,1.35,2.38,2.38,0,0,1-.8,1.35c-.06,0-.08,0,0-.15s0-.15-.05-.15c.2-.4.4-.82.6-1.25A4,4,0,0,1,4,97.3c0-.27,0-.4-.1-.4a6.53,6.53,0,0,0,.65-1.65,5.2,5.2,0,0,1,.75-1.65,4.53,4.53,0,0,1,1-2.2,4.44,4.44,0,0,0,1-2.1h.3a9.81,9.81,0,0,1,.7-1.8,2.18,2.18,0,0,0,.2-1.8A4.19,4.19,0,0,0,8,87.4a3.93,3.93,0,0,1-.65,1.8,22,22,0,0,1,.55-2.8c.24-.87.45-1.77.65-2.7a13.32,13.32,0,0,1,.55-2,4.68,4.68,0,0,0,.15-2.35c-.13,0-.18.08-.15.25A.27.27,0,0,1,9,79.9a.45.45,0,0,1-.15-.6A2.26,2.26,0,0,0,9,78.5a21,21,0,0,0,.25-2.65,17.3,17.3,0,0,1,.25-2.45,7.83,7.83,0,0,1,2.1-1.15,3.8,3.8,0,0,0,1.9-1.55c.14-.13.15-.25,0-.35s0-.18.15-.25c.2.13.24.28.1.45a.79.79,0,0,0-.2.45,2,2,0,0,0,1.3-1,4.4,4.4,0,0,1,1.2-1.35c-.07.13,0,.22.15.25s.25.12.25.25A12.79,12.79,0,0,0,18.29,66,17.56,17.56,0,0,1,20,62.7a.18.18,0,0,0-.2-.2c-.07,0-.1-.07-.1-.2a2.63,2.63,0,0,1,1.75-.55,9.26,9.26,0,0,0,2-.15.28.28,0,0,0,.05-.4c-.1-.13-.08-.23.05-.3a3.49,3.49,0,0,1,.8-.2c-.13-.27-.27-.53-.4-.8a.88.88,0,0,0-.6-.5,14.72,14.72,0,0,0-.45-1.5,14.72,14.72,0,0,1-.45-1.5,3.91,3.91,0,0,0-1.1-.4,1.45,1.45,0,0,0-.55-1.35c-.43-.37-.82-.72-1.15-1a.24.24,0,0,0-.25.2c0,.13-.12.17-.25.1a2,2,0,0,1-.1-.8.82.82,0,0,1,.6.2,3.46,3.46,0,0,0-.5-1,1.63,1.63,0,0,1-.2-1.2,4.55,4.55,0,0,1-.4-.45c-.13-.17-.37-.18-.7,0,.2-.33.17-.58-.1-.75a.83.83,0,0,1-.4-.75,1.82,1.82,0,0,0-.8-.2,1.16,1.16,0,0,0-.45-.75,2.39,2.39,0,0,1-.55-.55c-.2.07-.23.15-.1.25a.35.35,0,0,1,.1.45c-.33-.53-.68-1-1.05-1.55a11.89,11.89,0,0,0-1.25-1.45,1.53,1.53,0,0,0,0-.8.69.69,0,0,1,.1-.6,1.55,1.55,0,0,0-.4-.3,1.15,1.15,0,0,1-.4-.5,3,3,0,0,0,.65-1.4,9.58,9.58,0,0,1,.45-1.6.8.8,0,0,1,.2-.15.65.65,0,0,0,.2-.15,2,2,0,0,0,.3-.65,2.56,2.56,0,0,1,.3-.65,4.36,4.36,0,0,1,.7-.55,4,4,0,0,0,.7-.55,2.11,2.11,0,0,0,.1-.7,2.41,2.41,0,0,1,.1-.7,6.67,6.67,0,0,1,0-2.3,17.57,17.57,0,0,0,.2-2.3,1,1,0,0,1-.3-.9c.07,0,.1.07.1.2v0a5.33,5.33,0,0,0-.15-1.3c-.1-.4-.21-.87-.35-1.4-.13-.33-.27-.63-.4-.9a4.34,4.34,0,0,1-.3-.8,1.12,1.12,0,0,1,.05-.75,1.12,1.12,0,0,0,0-.75,2.73,2.73,0,0,0-.2-.5c-.06-.13-.13-.3-.2-.5a2.46,2.46,0,0,0-.6-1,1.22,1.22,0,0,1-.2-1.2c.2,0,.3.07.3.2a.65.65,0,0,0,.2-.5c.27,0,.37.18.3.55s.07.52.4.45c.07-.53.12-1.12.15-1.75a11.66,11.66,0,0,0-.05-1.95c.47,0,.65.17.55.5s-.18.6-.25.8c0,.53,0,1.15-.1,1.85a6.55,6.55,0,0,0,.1,1.95,3.27,3.27,0,0,0,.9,1.7,3.22,3.22,0,0,1,.9,1.5c-.07.13-.12.17-.15.1s-.12-.1-.25-.1c-.13.53,0,.87.25,1a.48.48,0,0,1,.25.7,1,1,0,0,1,.5.75c.07.37.13.75.2,1.15a.41.41,0,0,1-.2-.4,1.06,1.06,0,0,0-.1-.5c-.13.07-.17.18-.1.35a.75.75,0,0,1,0,.55c0,.13.07.18.2.15a.3.3,0,0,1,.3.05,5.41,5.41,0,0,0,.05,1.65,6.64,6.64,0,0,1,.05,1.85,4.06,4.06,0,0,1-.25,1.4,1.59,1.59,0,0,0,.15,1.4c.13.07.22,0,.25-.1a.46.46,0,0,1,.25-.3,1,1,0,0,1-.15,1.2,2.22,2.22,0,0,0-.55,1.2c-.07,0-.1-.1-.1-.3a.77.77,0,0,0-.45.45,1.8,1.8,0,0,1-.35.55,7.27,7.27,0,0,1-.05,2.55,6.45,6.45,0,0,0-.05,2.35,1.16,1.16,0,0,0,.35.7.7.7,0,0,1,.25.6c.2.13.27.08.2-.15s0-.32.1-.25.17.37.1.5a.41.41,0,0,0,0,.4.23.23,0,0,0,.15.25,1,1,0,0,1,.35.25c0,.07,0,.1-.1.1v.1a3.24,3.24,0,0,0,.4.55,3.38,3.38,0,0,1,.5.75,7.88,7.88,0,0,1,.3.9c.07.27.3.37.7.3.53.67,1.07,1.3,1.6,1.9l1.6,1.8a4.66,4.66,0,0,0,0-4,.78.78,0,0,1,.05-.3.78.78,0,0,0,.05-.3c-.07-.13-.12-.15-.15-.05s-.12.12-.25.05a2.21,2.21,0,0,0,0-1.3,1.26,1.26,0,0,0-.6-.8,3.49,3.49,0,0,1-1.6-1c-.4-.43-.83-.88-1.3-1.35a.4.4,0,0,0-.3.1q-.1.1-.3,0a1.06,1.06,0,0,1-.05-.55,3.73,3.73,0,0,0,.05-.65,1,1,0,0,1,.8.9,2.85,2.85,0,0,1,.8.45,3.24,3.24,0,0,0,.7.45c.13-.13.1-.23-.1-.3s-.3-.17-.3-.3a1.16,1.16,0,0,1,.7.35c.13.17.27.35.4.55a1.66,1.66,0,0,0,1.8-.4c.13-.07.22-.07.25,0s.12.07.25,0a6,6,0,0,0,3.3-4.1.54.54,0,0,0,.25-.2.65.65,0,0,1,.15-.2c-.13-.53-.1-.88.1-1a1.39,1.39,0,0,0,.4-.85,14.14,14.14,0,0,1,1.7-1.1,7.61,7.61,0,0,0,1.7-1.3,2.77,2.77,0,0,0,1.8-1,5,5,0,0,1,1.5-1.25.84.84,0,0,1,.25-.3.45.45,0,0,0,.15-.4c.6-.13.87-.47.8-1a.33.33,0,0,0-.4-.1l-.4.2v-.6a4.64,4.64,0,0,1,2-1,2.49,2.49,0,0,0,1.65-1.2c.07,0,.08.05,0,.15s0,.15.05.15l2-.95a10.14,10.14,0,0,0,1.75-1.05v-.7a1.18,1.18,0,0,1,.85-.25.63.63,0,0,0,.65-.25c.07.13.05.22,0,.25a.23.23,0,0,0-.15.25,1.59,1.59,0,0,0,1.35-.75,6.24,6.24,0,0,0,.55-1.45,1.62,1.62,0,0,1-.1,1,5,5,0,0,1-.5.8,7.49,7.49,0,0,0-.5.75,1.72,1.72,0,0,0-.2.85l-.4.4a.76.76,0,0,0-.1.7.71.71,0,0,0-.7.4,1.67,1.67,0,0,0-.2.7c0,.13,0,.15-.1.05s-.13-.08-.2.05c-.27.33-.52.65-.75.95a5.25,5.25,0,0,1-.85.85,2.31,2.31,0,0,1-.4,1,2.29,2.29,0,0,0-.4.9,1.48,1.48,0,0,1,.25,1.85A2.26,2.26,0,0,1,40,37.2a3.1,3.1,0,0,1-.5,1.75,2.08,2.08,0,0,0-.3,1.65.5.5,0,0,0-.2.6,3.59,3.59,0,0,1,.1.9c-.07.13-.13.27-.2.4a.85.85,0,0,0-.1.4,2.65,2.65,0,0,0,0,1.05,5.63,5.63,0,0,1,.1,1c0,.47,0,.92,0,1.35s-.05.92-.05,1.45a6.73,6.73,0,0,0,2.85,2.1,14.77,14.77,0,0,1,3.15,1.7.91.91,0,0,1,.7.1c0,.2-.08.32-.25.35a.85.85,0,0,0-.45.25,2.17,2.17,0,0,1-.7,1.2,2.8,2.8,0,0,0-.8,1.1h-.5c-.47.47-.92.9-1.35,1.3a4.59,4.59,0,0,0-1,1.5,3,3,0,0,0-1,.8,6.38,6.38,0,0,1-.9.9.78.78,0,0,1-.05.3.35.35,0,0,0,.05.3c-.33.27-.57.47-.7.6a2,2,0,0,0,1.35,0q.55-.26,1-.45c0-.07.07-.13.2-.2s.13-.1,0-.1a1.59,1.59,0,0,1,1-.1.75.75,0,0,0,.75-.2q.49.11.9.15a.73.73,0,0,1,.6.45,8,8,0,0,1,1.45.5,5,5,0,0,0,1.45.4A10.92,10.92,0,0,1,50,62.05a30.93,30.93,0,0,1,3,2q.6,0,.6.3a.84.84,0,0,0,.3-.25.21.21,0,0,1,.3-.05c0,.67.23,1,.7,1a1.08,1.08,0,0,1,1,.5,2.87,2.87,0,0,1-1.5,1.3,2,2,0,0,0-1.2,1.7c0,.2,0,.23-.1.1s-.13-.2-.2-.2a15,15,0,0,1,.75,1.5,6,6,0,0,1,.45,1.6,1,1,0,0,1-1-.7c-.2-.47-.37-.87-.5-1.2a18.65,18.65,0,0,1,0,2.4,7.15,7.15,0,0,0,.25,2.3,1.44,1.44,0,0,0,.5.6.5.5,0,0,1,.2.6,2.19,2.19,0,0,1,.7.55,2,2,0,0,0,.8.55c-.13.4-.1.67.1.8a1.7,1.7,0,0,1,.5.5,3.76,3.76,0,0,1-.45.85,1,1,0,0,0-.05,1,1.2,1.2,0,0,0,.45.55c.23.17.18.35-.15.55a.49.49,0,0,1-.35-.15,1.48,1.48,0,0,0-.35-.25,5.17,5.17,0,0,0,.4,2,18,18,0,0,1,.7,2q.3,1,.6,1.8a3,3,0,0,0,.9,1.3,3,3,0,0,0,.85,1.8q.65.6,1.35,1.2a2.34,2.34,0,0,1,1.5.4A4.92,4.92,0,0,0,62.29,91.7ZM2,120.7a.48.48,0,0,0,.35-.4,1,1,0,0,1,.25-.5A.84.84,0,0,0,2,120.7Zm.8-1.5a1,1,0,0,0,.65-.7,2.92,2.92,0,0,1,.45-.9,1.76,1.76,0,0,0-1.1,1.6Zm1.9,1.5a2,2,0,0,0,.65-1,1.82,1.82,0,0,0,0-1.25c-.13.33-.28.67-.45,1A2.87,2.87,0,0,0,4.69,120.7ZM13.89,43c0-.2-.06-.3-.2-.3v.1c-.06,0-.06.07,0,.2Zm1.5-3.9a.39.39,0,0,0,.4-.3.62.62,0,0,0,0-.5,1.24,1.24,0,0,1-.25.35A.61.61,0,0,0,15.39,39.1Zm1.2-10.8a.56.56,0,0,1-.05-.4c0-.13-.05-.17-.25-.1C16.43,28.13,16.52,28.3,16.59,28.3Zm0-1.8c.14-.27.07-.37-.2-.3C16.39,26.47,16.46,26.57,16.59,26.5ZM17,48.1a1.74,1.74,0,0,0,.3.4q.2.2.3,0a.72.72,0,0,1-.3-.45C17.22,47.82,17.12,47.83,17,48.1Zm1.8,60a.41.41,0,0,0-.2-.4,1.74,1.74,0,0,1-.4-.3.41.41,0,0,0,.2.4A1.74,1.74,0,0,1,18.79,108.1Zm34.1-16a3.15,3.15,0,0,0,.4-1.1,5.69,5.69,0,0,1,.3-1.1,10.85,10.85,0,0,1-2.1-5.9.3.3,0,0,0-.3,0c-.13,0-.2,0-.2-.15a5.45,5.45,0,0,1,.3-2.75,4.57,4.57,0,0,0,.3-2.45,1.85,1.85,0,0,0-.65-1.25A1.63,1.63,0,0,1,50.39,76a3.51,3.51,0,0,1-1.3-.9c0-.13,0-.22.1-.25s.07-.12,0-.25a.2.2,0,0,1-.3-.1.68.68,0,0,0-.4-.3,1.83,1.83,0,0,0,0,.4c0,.13,0,.2,0,.2-.53-.13-.7-.52-.5-1.15s.37-1.12.5-1.45a.76.76,0,0,1-.4-.85,1.08,1.08,0,0,1,.4-.75c-.07-.13-.15-.28-.25-.45a.44.44,0,0,1-.05-.45c.27-.07.45,0,.55.1a1.1,1.1,0,0,0,.35.3,8.06,8.06,0,0,1,.45-.8l.55-.9a3.71,3.71,0,0,1,.6-.85,1.3,1.3,0,0,0,.4-.85.55.55,0,0,0-.35-.55c-.23-.1-.28-.32-.15-.65a2,2,0,0,1,.5.45,4.55,4.55,0,0,0,.4.45.59.59,0,0,0-.35-.8,7.87,7.87,0,0,1-1-.6c-.33-.2-.67-.38-1-.55s-.67-.32-1-.45L46,63a6.47,6.47,0,0,0-2.15-.6,2.08,2.08,0,0,0-1.8.4,3.66,3.66,0,0,1-1.5.8,4,4,0,0,1-.05.6,4,4,0,0,0,0,.6c.07.47.13,1,.2,1.45a10.4,10.4,0,0,1,.1,1.45,5.78,5.78,0,0,0,.05.75,1.41,1.41,0,0,1-.05.65,2.06,2.06,0,0,1-.5,1.05,1.19,1.19,0,0,0-.3,1,1.74,1.74,0,0,0,.3.4c.13.13.13.3,0,.5-.13-.2-.23-.37-.3-.5s-.13-.27-.2-.4a1.76,1.76,0,0,1,.35-1,1.76,1.76,0,0,0,.35-1,.84.84,0,0,0-.1-.7.67.67,0,0,1,0-.7c-.2-.2-.3-.33-.3-.4a4.45,4.45,0,0,0-.15-2.15,2,2,0,0,0-1.25-1.45h-.6a4.46,4.46,0,0,0-1.8-.7,16.93,16.93,0,0,0-2.35-.25,20.86,20.86,0,0,0-2.5,0c-.83.07-1.65.1-2.45.1-.13.07-.18.15-.15.25s0,.15-.15.15a1.36,1.36,0,0,0-1,.8,1.42,1.42,0,0,1-1,.8,5.62,5.62,0,0,0-.15.8,8.12,8.12,0,0,0-.05.9,4.61,4.61,0,0,0-.6.7,5.26,5.26,0,0,0-.25,1.3,6.87,6.87,0,0,1-.25,1.4c-.13.73-.25,1.47-.35,2.2a4.05,4.05,0,0,0,.25,2.1,1.53,1.53,0,0,0,.15.25,1.53,1.53,0,0,1,.15.25,16.3,16.3,0,0,1,.25,2.15,8.38,8.38,0,0,0,.35,2,9.18,9.18,0,0,0,.8,2,6.5,6.5,0,0,1,.7,2,5.72,5.72,0,0,0,.4,1.5c.33,0,.53,0,.6.1a1.28,1.28,0,0,1,0,1q-.2.1-.3,0a.4.4,0,0,0-.3-.1,6.19,6.19,0,0,1-.6,1.85,14.55,14.55,0,0,1-.9,1.45,1.83,1.83,0,0,0,.05.4,1.83,1.83,0,0,1,.05.4,8.15,8.15,0,0,1-1.15,1.45,8.15,8.15,0,0,0-1.15,1.45.35.35,0,0,0-.5-.15,5.09,5.09,0,0,1-.6.25,34.19,34.19,0,0,0-1.5,5c-.4,1.77-.77,3.58-1.1,5.45-.07.2-.13.38-.2.55a1.42,1.42,0,0,0-.1.55,3.25,3.25,0,0,0,2-.25,15,15,0,0,0,1.8-1c.53-.27,1-.52,1.55-.75a8.67,8.67,0,0,1,1.55-.55,6.38,6.38,0,0,1,.9-.9,2.13,2.13,0,0,0,.7-1,.41.41,0,0,0-.4-.2.18.18,0,0,1-.2-.2,2,2,0,0,1,1.2-.65,2.44,2.44,0,0,0,1.3-.65,2.24,2.24,0,0,0-.65.1c-.23.07-.38,0-.45-.1a1.53,1.53,0,0,1,.9-.55c.4-.1.8-.18,1.2-.25a5.18,5.18,0,0,1,1.9-.8,10.86,10.86,0,0,0,2-.6,6.2,6.2,0,0,0,1.3-.75,3.87,3.87,0,0,1,1.3-.65,3.88,3.88,0,0,0,1.75-1,6.87,6.87,0,0,1,1.55-1.15,1.42,1.42,0,0,1,.5-.45.61.61,0,0,1,.7,0q.2.19,0,.3t0,.3c-.2-.07-.43,0-.7.3a2.31,2.31,0,0,0,.95.35,7.4,7.4,0,0,1,1.15.25,4,4,0,0,1,.9.3,1.82,1.82,0,0,0,.8.2,3.31,3.31,0,0,0,1.85-.55,3,3,0,0,1,1.95-.45c.13-.13.17-.23.1-.3s0-.1.1-.1a4.32,4.32,0,0,0,1.5-.2A4.32,4.32,0,0,1,52.89,92.1ZM21.79,70.6a3.87,3.87,0,0,1,.45-1.1,1.24,1.24,0,0,0,.15-1.1,4.69,4.69,0,0,1-.7,1,3.15,3.15,0,0,0-.6,1,.49.49,0,0,1,.35.15A.27.27,0,0,0,21.79,70.6Zm3.5,42.5c.2-.07.28,0,.25.2s.05.3.25.3a2.32,2.32,0,0,1-.15-1c0-.37-.15-.58-.55-.65a.88.88,0,0,0,0,.6C25.16,112.7,25.22,112.9,25.29,113.1Zm.2-38a.69.69,0,0,1-.1-.3.33.33,0,0,0-.2-.3A.48.48,0,0,0,25.49,75.1Zm3.4,61.9h-.2a2.8,2.8,0,0,0-.8,1.1,11.13,11.13,0,0,1-.8,1.5c-.33.67-.67,1.27-1,1.8a5.41,5.41,0,0,0-.7,2c-.07.47-.13,1-.2,1.5s0,.87.3,1a13.53,13.53,0,0,1,1.5-4.65A26.17,26.17,0,0,0,28.89,137Zm11.9-83.5a.91.91,0,0,0-.5-.8,4.72,4.72,0,0,1-.9-.7,9.79,9.79,0,0,0,.5,1,1,1,0,0,1,.1,1,1.94,1.94,0,0,1-.8-1.45,2.51,2.51,0,0,0-.7-1.55.9.9,0,0,1-.6.6,1.46,1.46,0,0,1-.2-.8.78.78,0,0,0-.3-.7q.2-.3.15-.45a2.14,2.14,0,0,1,0-.55c-.27,0-.4,0-.4-.1q.1-2.2,0-4.65C37,42.72,37,41,37,39.3a3.63,3.63,0,0,0-.2-.35.6.6,0,0,1-.1-.35.32.32,0,0,1,0-.35.6.6,0,0,0,.1-.35c-.67.27-1.28.53-1.85.8s-1.15.57-1.75.9c.13.07.15.12.05.15a.23.23,0,0,0-.15.25,10.39,10.39,0,0,0-2.3,1.2c-.67.47-1.37.93-2.1,1.4a1.31,1.31,0,0,1-.3.5l-.4.4a1.54,1.54,0,0,0-.25.6.88.88,0,0,1-.25.5,4.76,4.76,0,0,1-.95,1,2.24,2.24,0,0,0-.75,1.25.41.41,0,0,0,.4,0c.13-.07.2,0,.2.1s-.1.2-.3.2a.59.59,0,0,0-.4.2,1,1,0,0,0-.15.7,3.17,3.17,0,0,0,.15.7c.13,0,.22,0,.25-.1s.12-.1.25-.1c-.07.2,0,.3.2.3a.27.27,0,0,1,.3.3,1,1,0,0,0-.25,1.15,4.23,4.23,0,0,1,.25,1.35.18.18,0,0,1-.2-.2.18.18,0,0,0-.2-.2q-.2,1.1-.45,2.4a9.48,9.48,0,0,0-.15,2.6,13,13,0,0,0,1,1.4,13,13,0,0,1,1,1.4,1.64,1.64,0,0,0,.45-.05.45.45,0,0,1,.35.05.65.65,0,0,0,.2.55,1.08,1.08,0,0,0,.5.2,1.08,1.08,0,0,1,.5.2.54.54,0,0,1,.2.45,4.55,4.55,0,0,0-.45-.4.44.44,0,0,0-.55,0,3,3,0,0,0,1.45,1,1.45,1.45,0,0,0,1.75-.4,1.58,1.58,0,0,0,1.15.15,4.06,4.06,0,0,0,1-.45l1-.6a3.15,3.15,0,0,1,1.1-.4,1.38,1.38,0,0,0,.5-.8,5.89,5.89,0,0,1,.1-1,1.43,1.43,0,0,1,.35-1.05,5.26,5.26,0,0,1,.8-.65l.9-.6a2.26,2.26,0,0,0,.75-.9c.07,0,.1,0,.1.1l-.2.2.2-.2A2.3,2.3,0,0,0,40.79,53.5ZM27.59,175.4a6.55,6.55,0,0,0,.7-2.15c.13-.83.27-1.55.4-2.15a3.84,3.84,0,0,0-.65,1.6,2.21,2.21,0,0,1-.75,1.4c-.13,0-.18-.08-.15-.25a.29.29,0,0,0-.15-.35.49.49,0,0,1-.15.35.61.61,0,0,0-.15.45,1.8,1.8,0,0,1,.35.55A1.09,1.09,0,0,0,27.59,175.4Zm-.6-2a.77.77,0,0,0,.55-.45.65.65,0,0,0,.05-.55,1.31,1.31,0,0,0-.3.5A1.31,1.31,0,0,1,27,173.4Zm1-2.6a1.8,1.8,0,0,0,.35-.55.88.88,0,0,0,.05-.65,1.66,1.66,0,0,0-.35.6A.77.77,0,0,0,28,170.8Zm.3-41.2q.2,0,.15-.45c0-.3-.12-.48-.25-.55a.62.62,0,0,0,0,.5A1.06,1.06,0,0,1,28.29,129.6Zm0,.9c.13.07.2,0,.2-.2s-.07-.23-.2-.1Zm1.6-27.8a.39.39,0,0,1,.05-.55c.17-.17.15-.28-.05-.35a1.19,1.19,0,0,1-.15.5C29.64,102.5,29.69,102.63,29.89,102.7Zm6-68.4c.27,0,.33-.1.2-.3C36,34,35.89,34.1,35.89,34.3ZM46.39,96c.33.13.5.13.5,0a.45.45,0,0,1-.25-.1C46.54,95.83,46.46,95.87,46.39,96Zm4,4a.53.53,0,0,1,.45-.45.94.94,0,0,0,.55-.25,5.3,5.3,0,0,0-.8-1.3,1.18,1.18,0,0,0-1.4-.3c.13.47.27.92.4,1.35A1.52,1.52,0,0,0,50.39,100Zm1.9-27a13.51,13.51,0,0,0-.1-1.65,5.7,5.7,0,0,0-.3-1.35,2.52,2.52,0,0,0-.1.8.82.82,0,0,0,.2.6c0,.13,0,.2-.1.2s-.13.07-.2.2a1.25,1.25,0,0,1,.2.7C51.89,72.7,52,72.87,52.29,73ZM53,87.7c-.13-.33-.25-.67-.35-1s-.22-.67-.35-1A4.67,4.67,0,0,0,53,87.7Zm1.8-22c-.47-.33-.82-.3-1,.1a1.57,1.57,0,0,0-.25,1.1,1.05,1.05,0,0,1,.65-.55A1,1,0,0,0,54.79,65.7Zm.1,17.5a7.1,7.1,0,0,1-.2-.8c-.07-.33-.17-.5-.3-.5A2.67,2.67,0,0,0,54.89,83.2Zm5.4,8.1c-.4,0-.6.07-.6.2a.3.3,0,0,0,.3,0A.46.46,0,0,0,60.29,91.3Z"/><path class="cls-1" d="M118.59,131.5a.69.69,0,0,1-.2-.5c0-.2-.13-.3-.4-.3a19.58,19.58,0,0,1-.75-3.15,19.58,19.58,0,0,0-.75-3.15,3.91,3.91,0,0,0-.25-2.3,3.14,3.14,0,0,1-.25-2,13,13,0,0,0-.5-1.4,2.67,2.67,0,0,1-1.3-.5c0-.07,0-.1.1-.1h.1l-.85-.35a.84.84,0,0,1-.45-.65.59.59,0,0,1-.6-.1l-.4-.4a2.25,2.25,0,0,0-.45-.35.62.62,0,0,0-.55,0,.91.91,0,0,0,.1.7c0,.07-.07.1-.2.1a.94.94,0,0,1-.25-.55c0-.23-.22-.42-.55-.55a7.33,7.33,0,0,0-.4,1c-.13.43,0,.72.3.85q.3-.1.15-.3a.35.35,0,0,1,0-.4,8.75,8.75,0,0,0,.7,1.6,3.44,3.44,0,0,0,1.2,1.2v1a2,2,0,0,0,.2.9c-.2.2-.33.23-.4.1a19.1,19.1,0,0,0,.15,3.75,15.56,15.56,0,0,1,0,3.75,1.18,1.18,0,0,1,.35,1.15c-.1.43-.22.88-.35,1.35-.07,0-.08-.05,0-.15a.23.23,0,0,0-.05-.25,28.21,28.21,0,0,0-2,2.9c-.6,1-1.2,2.07-1.8,3.2-.07,0-.1,0-.1-.1s-.07-.07-.2,0a3.73,3.73,0,0,0-1.15,1.35c-.3.57-.58,1.15-.85,1.75a8,8,0,0,0-1.45,2.4,14,14,0,0,0-.8,3c-.17,1.07-.28,2.17-.35,3.3s-.1,2.23-.1,3.3a36.19,36.19,0,0,0,0,3.9,15.73,15.73,0,0,0,.6,3.5,1.2,1.2,0,0,0-.25,1.3,3.29,3.29,0,0,1,.15,1.5c0,.13,0,.2-.1.2a.28.28,0,0,0-.2.1,19.13,19.13,0,0,1,.1,2,5.41,5.41,0,0,0,.3,1.9,1.08,1.08,0,0,0-.2.9,1.49,1.49,0,0,0,.45.15.85.85,0,0,1,.45.25q.11.19,0,.15c-.07,0-.13,0-.2.15a19.74,19.74,0,0,1,.95,2l1.15,2.7c.4.93.77,1.83,1.1,2.7l.8,2.1a13.09,13.09,0,0,1-.65-1.25q-.45-.94-.9-1.95l-.85-1.9a4.4,4.4,0,0,0-.7-1.2,2.3,2.3,0,0,0-.55-1.55,1.79,1.79,0,0,1-.45-1.45,4.17,4.17,0,0,0-.4-.35.28.28,0,0,0-.4.05,5.63,5.63,0,0,0,0-1.7,9.19,9.19,0,0,1-.15-1.7.9.9,0,0,1-.4-1,2.32,2.32,0,0,0-.1-1.2,16.68,16.68,0,0,0,0-3.45q-.15-2.05-.15-3.75a5,5,0,0,0-.2-1.45,9.49,9.49,0,0,1-.3-1.35.18.18,0,0,1-.2.2,3.83,3.83,0,0,1-.55-1.55,13.16,13.16,0,0,1-.15-2.05c0-.67,0-1.37.1-2.1a10.52,10.52,0,0,0,0-2.1,3.75,3.75,0,0,0-1.45,1.1,5.19,5.19,0,0,1-1.35,1.2,1.29,1.29,0,0,1-.2.3,1.29,1.29,0,0,0-.2.3,3,3,0,0,0-1.3.9c-.33.4-.67.83-1,1.3a3.17,3.17,0,0,0-1.6,1.5.61.61,0,0,0-.45.15,1.48,1.48,0,0,1-.35.25c0-.07-.1-.1-.3-.1a1.48,1.48,0,0,1,.25-.35.41.41,0,0,0,0-.45c.07,0,.17.07.3.2q1.5-1.69,3-3.2c1-1,2-2,2.75-2.9a6,6,0,0,1,.7-.75l.8-.65a11.79,11.79,0,0,1,1.15-1,6.35,6.35,0,0,0,1-1c.13-.2.28-.47.45-.8a2,2,0,0,0,.25-.9,1.06,1.06,0,0,0,.1-.5.59.59,0,0,1,.2-.4c.13,0,.2,0,.2.1s.07.07.2,0a13.67,13.67,0,0,0,1.25-1,3.17,3.17,0,0,0,.85-1.4,10.57,10.57,0,0,0,2-2.6c.57-1,1.15-2,1.75-2.9a10.43,10.43,0,0,0,.6-3.5,20.08,20.08,0,0,0-.3-3.5,1,1,0,0,1-.25-.35,1,1,0,0,0-.25-.35q.19-.19.3,0c.07.13.13.27.2.4a3.26,3.26,0,0,0-1.2-2.4,1.73,1.73,0,0,0-.45-1c-.23-.23-.48-.47-.75-.7a4.49,4.49,0,0,1-.7-.75,1.43,1.43,0,0,1-.2-1.1,1.59,1.59,0,0,0,.45-1,4.4,4.4,0,0,0-.1-1.3q-.15-.65-.3-1.2c-.1-.37-.18-.68-.25-1-.8-.33-1.57-.67-2.3-1a9.15,9.15,0,0,0-2.5-.7q-.19,0-.15.15a.23.23,0,0,1,0,.25,5.44,5.44,0,0,0-1-.35,1.32,1.32,0,0,0-1,.05.61.61,0,0,1-.4-.4c-.07-.2-.13-.4-.2-.6s-.13-.4-.2-.6a.39.39,0,0,0-.4-.3,2.56,2.56,0,0,0-.65-1.6,9.25,9.25,0,0,0-1.25-1.3,2.44,2.44,0,0,0-1.3-1.7,3.21,3.21,0,0,1-1.5-1.5,1.35,1.35,0,0,1-.9-.5,7.15,7.15,0,0,0-.7-.8,1.3,1.3,0,0,0-.6-.3,2.35,2.35,0,0,1-.7-.3v-.3a1.25,1.25,0,0,0-.7-.2,1.67,1.67,0,0,1-.7-.2,8.43,8.43,0,0,0-3.6-.6,7.14,7.14,0,0,0-1.5.35,12.1,12.1,0,0,0-1.3.55,1,1,0,0,0-1.1.05,2.18,2.18,0,0,1-1.4.25c-.13.13-.13.25,0,.35s.17.28.1.55a1.37,1.37,0,0,1-1-.75,10.38,10.38,0,0,0-.55-1,4.64,4.64,0,0,0-1.3-1.35,4.64,4.64,0,0,1-1.3-1.35,1.86,1.86,0,0,1-.75-.5,1.39,1.39,0,0,0-.85-.4,1.22,1.22,0,0,0-.65-.7c-.3-.13-.58-.27-.85-.4a1.79,1.79,0,0,0-.25-.5,2.92,2.92,0,0,1-.25-.4.79.79,0,0,1-.45-.1.6.6,0,0,0-.35-.1l-.1-.2c.07,0,.07-.07,0-.2a2.86,2.86,0,0,1-1.2-.2l-.45-.25-.45-.25a5.4,5.4,0,0,0-1.35-.25,7,7,0,0,1-1.45-.25,8.78,8.78,0,0,1-1-.25,8.78,8.78,0,0,0-1-.25.45.45,0,0,1-.5.1.68.68,0,0,1-.4-.3,8.57,8.57,0,0,1-2-.3,9.86,9.86,0,0,0-2.4-.3,10.39,10.39,0,0,1-1.8,0,4.64,4.64,0,0,0-1.6.15c.07-.13,0-.17-.15-.1s-.32.13-.45.2a19.22,19.22,0,0,0-1.6,1.3,5.55,5.55,0,0,0-1.3,1.6q-.49.19-.75,1.35t-.45,2.25q-.11.7-.15,1.2a2.18,2.18,0,0,0,.15,1,.33.33,0,0,0-.2.3c0,.07-.1,0-.3-.1-.13.73-.3,1.53-.5,2.4s-.37,1.73-.5,2.6a7.14,7.14,0,0,0-.2,1.7,1.18,1.18,0,0,1-.9,1.2,1,1,0,0,1-.5,1,1.73,1.73,0,0,0-.8,1.15.4.4,0,0,1-.3-.1c0,.13,0,.2.1.2s0,.07-.1.2-.08-.05,0-.15,0-.15-.15-.15a10.23,10.23,0,0,1-.3,1.1c-.2.67-.4,1.4-.6,2.2s-.4,1.53-.6,2.2a4.69,4.69,0,0,1-.4,1.1c.13-.4.28-1,.45-1.7s.32-1.47.45-2.2.27-1.37.4-1.9a5.81,5.81,0,0,1,.3-1c.13.07.13.15,0,.25s-.13.18,0,.25a1,1,0,0,0,.25-.6,1,1,0,0,1,.25-.6c.13,0,.2,0,.2.1s.07.13.2.2a.45.45,0,0,1,0-.35c0-.1.12-.08.25,0a.3.3,0,0,1-.05-.3c0-.13,0-.2-.25-.2a1.66,1.66,0,0,1,.55-.85,7.86,7.86,0,0,0,.85-.75q0-.1-.15-.15a.58.58,0,0,1-.25-.15c.13-.13.22-.15.25,0a.23.23,0,0,0,.25.15.88.88,0,0,0,.25-.4.88.88,0,0,1,.25-.4.34.34,0,0,0-.45,0,.9.9,0,0,0-.35.35.94.94,0,0,1,.3-.9.91.91,0,0,0,.2-1h-.2a4,4,0,0,0,.05-1.65,2.23,2.23,0,0,1,.25-1.55c0-.13-.07-.18-.2-.15A.25.25,0,0,1,50,103a.53.53,0,0,0,.25-.55.52.52,0,0,1,.35-.55.28.28,0,0,1-.1-.2.28.28,0,0,0-.1-.2c0-.07.1-.1.3-.1.13-.33.13-.55,0-.65a.65.65,0,0,1-.2-.55c.07-.07.23-.1.5-.1a.28.28,0,0,1-.1-.2.18.18,0,0,0-.2-.2H51a3,3,0,0,1,.15-1,3.69,3.69,0,0,0,.15-1.15c-.07,0-.1,0-.1.1s0,.07-.1,0a1.2,1.2,0,0,0,0-.9,1.28,1.28,0,0,1,.25-1.1c.07.07.1.23.1.5a2.69,2.69,0,0,1,.7-1.2,2.09,2.09,0,0,0,.6-1.2.78.78,0,0,0,.3,0l.3-.15a1.07,1.07,0,0,1,.3-1,3,3,0,0,0,.6-.8,9.44,9.44,0,0,0-2.15-1,17.6,17.6,0,0,0-2.45-.55,1.77,1.77,0,0,1,1.4-.45,9,9,0,0,1,1.7.25c.13,0,.18-.07.15-.2a.25.25,0,0,1,.15-.3c0,.33.28.57.85.7s.92,0,1.05-.3c.13,0,.17,0,.1.1a.4.4,0,0,0-.1.3.45.45,0,0,0,.4-.15q.11-.15.3.15c.07-.2-.07-.3-.4-.3a1.42,1.42,0,0,1,.15-.35,1,1,0,0,0,.05-.45c.13-.07.22-.07.25,0s.12.1.25.1q0-.41-.15-.45c-.1,0-.08-.12,0-.25s.18,0,.15.15,0,.25.15.25a1.44,1.44,0,0,0,.25-.9,1.89,1.89,0,0,1,.15-.9.94.94,0,0,1,.25.55.94.94,0,0,0,.25.55,1.25,1.25,0,0,1,.7.2,5.4,5.4,0,0,0,.9-.45,2.85,2.85,0,0,1,1.1-.35,1.87,1.87,0,0,1,1.05-.65A2.79,2.79,0,0,0,62,86.6c.27.07.37.1.3.1l.2-.2c.07,0,.08,0,0,.1s0,.1.15.1l1.15-2.1a15.31,15.31,0,0,0,1-2.1c.07-.07,0-.12-.1-.15s-.2,0-.2.15c-.07-.07,0-.15.05-.25a.27.27,0,0,0,0-.35c.13.07.33,0,.6-.1,0-.2,0-.3-.1-.3a12.09,12.09,0,0,0,1.25-2,4.93,4.93,0,0,0,.35-2.8c0-.13,0-.15.1,0s.1.08.1-.05,0-.2-.1-.2v-.1c-.07.07-.13,0-.2,0s0-.28.1-.55a.16.16,0,0,1,0,.2.16.16,0,0,0,.05.2c-.07-.73-.1-1.43-.1-2.1s0-1.37-.1-2.1c.13,0,.18,0,.15.1s0,.1.05.1.1-.2-.1-.2q0-.2.15-.15c.1,0,.15,0,.15,0a15.81,15.81,0,0,1,.7-2.35,4.6,4.6,0,0,0,.4-2c-.67-.4-1.3-.82-1.9-1.25a6.13,6.13,0,0,0-2.3-1c-.13-.07-.15-.13,0-.2s.08-.13-.05-.2-.18,0-.15.1,0,.17-.15.1v-.1c.07,0,.1,0,.1-.1a2.41,2.41,0,0,0-1.9.6,3.26,3.26,0,0,1-1.9.8c0-.33.22-.55.65-.65a1.16,1.16,0,0,0,.85-.55.32.32,0,0,0,.5.1c.2-.13.27-.27.2-.4.27.13.47.12.6,0a4.55,4.55,0,0,1,.4-.45h.4c.2,0,.23.07.1.2a.85.85,0,0,1,.4-.1.33.33,0,0,0,.3-.2,1.52,1.52,0,0,1,1,.4.55.55,0,0,0,.85,0,1.6,1.6,0,0,0,.9.6,1.56,1.56,0,0,1,.8.4,1.13,1.13,0,0,0,.2-1,1.75,1.75,0,0,1,.2-1.2c-.07-.07-.1-.07-.1,0s-.07.07-.2,0c.13-.07.17-.13.1-.2s0-.07.2,0a.18.18,0,0,0-.2-.2c-.13,0-.17-.07-.1-.2s.17.07.3.2v-.3c0-.13-.07-.13-.2,0a1.77,1.77,0,0,0-.2-1.8,12.45,12.45,0,0,1-1-1.8h-.5v-.5a1.71,1.71,0,0,1-.85-.9,1.19,1.19,0,0,0-1.15-.7l-.6-.6a3,3,0,0,0-.8-.6c-.13-.13-.17-.18-.1-.15s.1,0,.1-.15q-.8-.19-.9-.75a2.31,2.31,0,0,0-.5-1c.07,0,.08,0,0-.15s0-.15.15-.15A4.67,4.67,0,0,1,60.94,52a2.83,2.83,0,0,0-.85-1.15c.13,0,.18-.07.15-.2s0-.2.15-.2a.33.33,0,0,0-.2-.3q-.19-.1,0-.3a1.47,1.47,0,0,1-1-.2.33.33,0,0,1,.3-.2q.1,0,0-.3c-.07-.13-.12-.12-.15,0a.64.64,0,0,1-.15.35,1.21,1.21,0,0,0-1-.35.71.71,0,0,1-.8-.45c.2,0,.27.07.2.2.13,0,.2,0,.2-.1s0-.2.1-.2a19.61,19.61,0,0,0,2.1.25,1.47,1.47,0,0,0,1.4-.75.51.51,0,0,0,.5-.05c.13-.1.17-.18.1-.25a5.19,5.19,0,0,0,1.25-.75c.37-.3.78-.62,1.25-.95.07,0,.1.07.1.2a1,1,0,0,1,.35-.25c.1,0,.12-.15,0-.35a2.8,2.8,0,0,1,.7-.1q.41,0,.6-.6a.49.49,0,0,1,.2,0,.49.49,0,0,0,.2.05c.07-.13.07-.22,0-.25s-.07-.08,0-.15a1.56,1.56,0,0,1,.5-.15c.2,0,.3.05.3.25s-.1.2-.3.2a.18.18,0,0,0-.2.2,2.7,2.7,0,0,0,.35.3,2,2,0,0,0,.45.2q-.11-.2.15-.45t-.15-.45a2.52,2.52,0,0,1,1.3,0,2.45,2.45,0,0,0,1.1,0,.16.16,0,0,1-.2.05c-.07,0-.1,0-.1.15a1.35,1.35,0,0,0,1.4-.3,1.24,1.24,0,0,0,.7.3,2.37,2.37,0,0,1,.8.2,5.47,5.47,0,0,1,1.4-1,5.47,5.47,0,0,0,1.4-1c0-.07-.1-.1-.3-.1.33-.13.6-.25.8-.35a1.77,1.77,0,0,0,.6-.55c.13.07.13.1,0,.1s-.1,0-.1.1a6,6,0,0,1,1-.8,12,12,0,0,0,1.25-.9c.13-.07.17,0,.1.1s0,.2.1.2a1.45,1.45,0,0,0,.7-1.25,2.36,2.36,0,0,1,.6-1.45c.13.13.15.25,0,.35l-.25.25a.36.36,0,0,0,.5-.3.8.8,0,0,0-.35-.45.48.48,0,0,1-.25-.45,2.21,2.21,0,0,0,.4-.6,1.25,1.25,0,0,1,.6-.6,1.58,1.58,0,0,1,.7-.25,1.58,1.58,0,0,0,.7-.25,7.68,7.68,0,0,0,1.3-.7,4.4,4.4,0,0,1,1.3-.6v-.1a4.19,4.19,0,0,0-.1-1,.67.67,0,0,1,.4-.75.65.65,0,0,0,.3.75.77.77,0,0,0,.8.05.69.69,0,0,1,.2.5.69.69,0,0,0,.2.5,2.5,2.5,0,0,0,1,1.95c.6.43,1.27.88,2,1.35a11.3,11.3,0,0,0,2.2,1.1c.73.27,1.5.57,2.3.9.13-.33.37-.33.7,0,.13.07.2.07.2,0a.18.18,0,0,1,.2-.2c.07.27.27.33.6.2a.28.28,0,0,1,.1.2l.1.1a3.8,3.8,0,0,0,1.95-.55,3.36,3.36,0,0,0,1.35-1.35c0-.13,0-.15.1,0s.17.08.3-.05a13.4,13.4,0,0,0,1.85-1.25,20.53,20.53,0,0,0,1.75-1.55l.55-.35a1.38,1.38,0,0,0,.45-.45,1.1,1.1,0,0,0,.2-.6,1.8,1.8,0,0,1,.1-.6c.2-.53.38-1,.55-1.5a7.14,7.14,0,0,0,.35-1.5,5.12,5.12,0,0,1,1.3-.9,4.26,4.26,0,0,1,.5-1.05,1.66,1.66,0,0,1,.9-.65c.13.13.15.25.05.35s-.08.22,0,.35a2.19,2.19,0,0,0-.7.55,1.93,1.93,0,0,0-.4,1,21.94,21.94,0,0,0-1.3,2.35,18.46,18.46,0,0,0-1,2.55c0,.13.07.18.2.15s.2,0,.2.05c-.07.27-.18.42-.35.45a.46.46,0,0,0-.35.35.45.45,0,0,1,0,.35c0,.1,0,.22.15.35a1.21,1.21,0,0,1-.7.7,1.24,1.24,0,0,0-.7.9,1.63,1.63,0,0,0-.6.2l-1.8,1.8a12,12,0,0,0-1.6,2,7,7,0,0,0,2.2,1.4,5.19,5.19,0,0,1,2.2,1.7c.13,0,.2,0,.2.1s.07,0,.2-.1.1-.23.1-.5a.46.46,0,0,1,.3.5.58.58,0,0,0,.3.5,4.59,4.59,0,0,0,.35,2.2,3.61,3.61,0,0,1,.15,2.3,1.3,1.3,0,0,0-1.25.05,1.56,1.56,0,0,1-1.25.15v-.2a1.31,1.31,0,0,1,.55-.3l.65-.2a1,1,0,0,1,.35-.6.66.66,0,0,0,.15-.7.18.18,0,0,0-.2-.2.28.28,0,0,1-.2-.1c0-.13,0-.15.05,0s.12.12.25,0a2.16,2.16,0,0,0-1.1-1.6,11.06,11.06,0,0,0-2.4-.9,14.72,14.72,0,0,1-1.5-.45l-1.2-.45a1.66,1.66,0,0,0-.75-.25l-.55,0a1.08,1.08,0,0,0-.85.65,1.44,1.44,0,0,1-.65.75,1,1,0,0,0,.4.8.63.63,0,0,1,.3.7.9.9,0,0,1-.8-.55.68.68,0,0,0-.9-.35.59.59,0,0,0-.4.2l-.4.4a6,6,0,0,0-1.2,1.1,3.06,3.06,0,0,1-1.1.9c.13-.07.17-.1.1-.1s-.1-.07-.1-.2-.2,0-.2.1-.07.1-.2.1c.33,1,.67,2,1,3a25.94,25.94,0,0,1,.8,3.15,2.19,2.19,0,0,0,.55.7.66.66,0,0,1,.25.7c.13.13.07.2-.2.2a.28.28,0,0,1-.2-.1,1.66,1.66,0,0,0,.1.7,1.26,1.26,0,0,0-.2,1,4.19,4.19,0,0,1,.1.95,10.92,10.92,0,0,1,.05,2.75,9.24,9.24,0,0,0,0,2.55,4.07,4.07,0,0,0,.3.65c.13.23.17.32.1.25s-.17-.13-.1,0,0,.33-.1.6l-.2-.1c-.13.13-.15.25,0,.35a.77.77,0,0,1,.15.55,5,5,0,0,1-.3,1,1.21,1.21,0,0,0,0,1,6.23,6.23,0,0,1-.4-.7c.2,0,.3-.07.3-.2A1.53,1.53,0,0,1,93,67,4.24,4.24,0,0,0,93,65.8a3.08,3.08,0,0,1-.6-1.9,5.08,5.08,0,0,0-.4-2.1A6.85,6.85,0,0,0,92,60.4c0-.4-.05-.83-.05-1.3.13,0,.15,0,.05.15s-.08.15,0,.15.18-.08.15-.25-.12-.22-.25-.15c0-.13,0-.2.1-.2s.1,0,.1-.1,0-.17-.15-.1-.12,0-.05-.1a2.38,2.38,0,0,1-.1-.9A26.89,26.89,0,0,0,90,54.3a23.66,23.66,0,0,1-1.85-3.4,1.25,1.25,0,0,1,.5.7,4.34,4.34,0,0,0,.3.8,3.15,3.15,0,0,0,.6.65,2.31,2.31,0,0,1,.6.75,1.25,1.25,0,0,1,.2.7c0,.2.13.37.4.5-.87-1.93-1.87-4-3-6.1-.2-.13-.3-.1-.3.1a.4.4,0,0,0-.2-.5l-.6-.4c0-.4.1-.63.3-.7l-.35-.35a.61.61,0,0,0-.45-.15.82.82,0,0,1,.65-.65,1.86,1.86,0,0,0,.85-.45.69.69,0,0,0-.8.15.69.69,0,0,1-.8.15,6.42,6.42,0,0,1,1.65-1,18,18,0,0,1,2-.7c.67-.2,1.33-.43,2-.7a7.81,7.81,0,0,0,1.8-1,3.06,3.06,0,0,0-.9-.35,1.15,1.15,0,0,0-.9,0c-.93-.27-2-.53-3.1-.8a28.84,28.84,0,0,0-3.4-.6,1.9,1.9,0,0,1-1-.25,3.2,3.2,0,0,1-.65-.45,1.3,1.3,0,0,1-.3-.6c-.07-.27-.23-.33-.5-.2a1.6,1.6,0,0,0-.9.6,4.67,4.67,0,0,0-.6.9q-2.6,2-5.4,3.75a54.64,54.64,0,0,0-5.4,3.85c-.13-.07-.2-.13-.2-.2a.4.4,0,0,0-.1-.3,1.33,1.33,0,0,0-.6.1,1.33,1.33,0,0,1-.6.1c0-.13.1-.2.3-.2-.2-.2-.38-.23-.55-.1a4.55,4.55,0,0,0-.45.4,2.61,2.61,0,0,0-2,.9,10.34,10.34,0,0,1-1.4,1.5.33.33,0,0,0-.4-.1c-.13,0-.18,0-.15.1s0,.1-.15.1c.27.13.37.3.3.5a1.8,1.8,0,0,0-.1.6,4.46,4.46,0,0,0,.7,1.5,3.42,3.42,0,0,1,.6,1.6c.13.13.2.13.2,0V55c.13.6.23,1,.3,1.3a1.85,1.85,0,0,0,.8.9,3.12,3.12,0,0,0,.5.4l.5.3.45.15a.81.81,0,0,1,.35.35,2,2,0,0,1,.9.2.56.56,0,0,0,0,.4c0,.13,0,.17-.25.1a.23.23,0,0,1,0,.25.23.23,0,0,0,0,.25c0,.13,0,.17,0,.1a.15.15,0,0,0-.15-.1,2.68,2.68,0,0,1-.05.45c0,.17,0,.25.15.25a.49.49,0,0,1,0-.2.78.78,0,0,0,0-.3,1.88,1.88,0,0,1,0,1.2,1.26,1.26,0,0,0,.2,1.2,2.13,2.13,0,0,0-.35,1.7A1.83,1.83,0,0,1,69,65.5c.13.33.33.5.6.5a1.82,1.82,0,0,1,.8.2q.19-.2,0-.15c-.13,0-.17,0-.1-.15a.69.69,0,0,0,.5.2,1.33,1.33,0,0,1,.6.1,24.89,24.89,0,0,1,3.85-.5,24.89,24.89,0,0,0,3.85-.5c.4-.13.73-.23,1-.3a.47.47,0,0,1,.25.25.47.47,0,0,0,.25.25c.13,0,.13-.07,0-.2s-.07-.17.2-.1a1.33,1.33,0,0,0,.15.6,1.93,1.93,0,0,0,.35.5,7.43,7.43,0,0,1,2,1.15c.63.5,1.22,1,1.75,1.45a1.77,1.77,0,0,0,1.5.3,5.25,5.25,0,0,1,1.8-.1,1,1,0,0,0,.25,1,1,1,0,0,1,.35.8,4.23,4.23,0,0,1,1.85,1.75A3.6,3.6,0,0,0,93,74.2a.61.61,0,0,0,.35.4,1.37,1.37,0,0,1,.45.3,3.59,3.59,0,0,1-.1.9c-.2-.13-.3-.27-.3-.4s-.1-.27-.3-.4-.4.07-.4.2a10.83,10.83,0,0,0-2.25-1.55c-.83-.43-1.65-.88-2.45-1.35.2-.13.23-.22.1-.25a.46.46,0,0,1-.3-.25c-.13,0-.2,0-.2.1h.1a4.48,4.48,0,0,1-2-.9,2.88,2.88,0,0,0-2.1-.6.41.41,0,0,1,0-.4.93.93,0,0,1-.75-.3,1.86,1.86,0,0,0-.75-.5c-.13.07-.17.15-.1.25a.34.34,0,0,0,.3.15c-.2.07-.37,0-.5-.25l-.3-.55a4,4,0,0,0-2.4-.8,13,13,0,0,0-2.5.25l-2.55.5a8.49,8.49,0,0,1-2.45.15,1.15,1.15,0,0,1-1.5.25,6.08,6.08,0,0,1-1.3-1,.94.94,0,0,0-.15.65,5.78,5.78,0,0,1,0,.75c.07.13.15.17.25.1s.15-.07.15,0a1.89,1.89,0,0,0-.15.9,1.43,1.43,0,0,1-.15.8,15.91,15.91,0,0,1,.5,4.2,25.84,25.84,0,0,0,.3,4.2,1.83,1.83,0,0,0,0,.4.46.46,0,0,0,.25.3.69.69,0,0,1-.1.3.2.2,0,0,0,.1.3h-.3a6.18,6.18,0,0,0,.6,2.8,14.5,14.5,0,0,1-1.1,2.3c-.4.67-.83,1.37-1.3,2.1q-.8.2-2.1.6a4,4,0,0,0-1.9,1.1,6.9,6.9,0,0,0-1.55.45,5.49,5.49,0,0,0-1.45.85,27.89,27.89,0,0,1,6.75,1,35.46,35.46,0,0,0,6.55,1.15.44.44,0,0,0,.45.25.49.49,0,0,1,.45.15c.07.13,0,.18-.1.15s-.17,0-.1.15a6.67,6.67,0,0,1,1.75.75A5.44,5.44,0,0,1,78,96v-.2c.33.2.65.4,1,.6s.62.4,1,.6q1.1.1,1,.9a1.49,1.49,0,0,0,.55,1.3c.13,0,.2,0,.2-.1a.28.28,0,0,1,.1-.2l.3.9a14.39,14.39,0,0,0,4-.9A22.21,22.21,0,0,1,90,97.8c.07,0,.17.13.3.4a9.62,9.62,0,0,1,3,1.7,10.3,10.3,0,0,0,2.8,1.7c.27,0,.3.1.1.3,1.07.73,2.15,1.43,3.25,2.1s2.18,1.37,3.25,2.1a.85.85,0,0,1,.4.1.33.33,0,0,0,.4-.1c.13.2.47.3,1,.3a9.29,9.29,0,0,0-1.85-2.65c-.77-.77-1.52-1.45-2.25-2a2.92,2.92,0,0,0-.25-.4.8.8,0,0,1-.15-.5c.07,0,.1,0,.1.1h.1a.68.68,0,0,0-.4-.3c-.2-.07-.23-.2-.1-.4a.53.53,0,0,0-.35.5.6.6,0,0,1-.25.5,5.43,5.43,0,0,0,.15-1.6,5.43,5.43,0,0,1,.15-1.6,1.19,1.19,0,0,1,.1-.45,1.19,1.19,0,0,0,.1-.45,4.09,4.09,0,0,0-.2-1.15c-.13-.43-.27-.85-.4-1.25-.27-.8-.53-1.57-.8-2.3a12.33,12.33,0,0,1-.6-2.3c-.07-.13-.13-.17-.2-.1s-.17,0-.3-.1a18.48,18.48,0,0,1-.1-3.35c.07-1.17.17-2.35.3-3.55s.23-2.08.3-3,.17-1.92.3-2.85c.53,0,.8.2.8.6a3,3,0,0,0,.2,1.1,1.06,1.06,0,0,0,.1-.5.67.67,0,0,1,.3-.6,3.84,3.84,0,0,0-.05,2.65A19.45,19.45,0,0,1,100,82.7a1.8,1.8,0,0,1,.1.6.59.59,0,0,0,.2.4c.07.27,0,.43-.05.5a.45.45,0,0,0-.15.4c.2.07.32,0,.35-.2s.18-.27.45-.2a4.56,4.56,0,0,1-.85,2,2.14,2.14,0,0,0-.35,2c.13.67.32,1.42.55,2.25a6.1,6.1,0,0,0,1,2,1.89,1.89,0,0,0,.6.7.74.74,0,0,1,.3.8c-.13,0-.2,0-.2-.1s-.07-.1-.2-.1a10.15,10.15,0,0,0,.35,2.8c.23.8.52,1.73.85,2.8a.92.92,0,0,1,0,.25.23.23,0,0,0,0,.25.84.84,0,0,0,.25.3,2.7,2.7,0,0,1,.35.3c.27.27.53.55.8.85a2.41,2.41,0,0,0,.9.65,2.94,2.94,0,0,0,.85-.5,2,2,0,0,0,.55-.8,1.59,1.59,0,0,1,.2,1.35,5.75,5.75,0,0,0-.2,1.45,4.17,4.17,0,0,0,.55,2.15,11.53,11.53,0,0,1,.85,1.75,1,1,0,0,1,.25.35.47.47,0,0,0,.25.25c-.13.13-.15.25,0,.35a.49.49,0,0,0,.35.15h-.2a5.62,5.62,0,0,0,.65,1.55c.3.5.92.65,1.85.45a.21.21,0,0,0,0,.15s0,.12,0,.25a54.09,54.09,0,0,1,3.75,4.4,36.54,36.54,0,0,1,3.15,4.9c0,.13-.13.2-.4.2a10.61,10.61,0,0,1,.5,2.6c.07.93.1,1.9.1,2.9s0,2,0,2.95A12.5,12.5,0,0,0,118.59,131.5ZM50.89,90.3c-.13,0-.18,0-.15-.1a.49.49,0,0,0,0-.2.59.59,0,0,0-.4.2.34.34,0,0,1,.3.15C50.76,90.45,50.82,90.43,50.89,90.3Zm-.3,14.7a1.83,1.83,0,0,1,0-.4c0-.13,0-.2-.15-.2a.57.57,0,0,0-.1.4C50.39,105,50.46,105.07,50.59,105Zm1.1-5.7c.13.07.2.07.2,0A.4.4,0,0,1,52,99h-.1c0-.07-.07-.1-.2-.1s0,.22.1.25S51.82,99.23,51.69,99.3Zm.4-.7a1.66,1.66,0,0,0,.1-.7,2.52,2.52,0,0,0-.1-.8.18.18,0,0,1-.2.2,1.35,1.35,0,0,1,0,.75C51.82,98.35,51.89,98.53,52.09,98.6Zm2.6-5.9v-.3a.88.88,0,0,0-.25.4,1.63,1.63,0,0,1-.15.4c.2,0,.27-.08.2-.25S54.49,92.7,54.69,92.7Zm1.4-2.5a1.37,1.37,0,0,0,.2-.9.28.28,0,0,0-.2-.1.62.62,0,0,1,0,.5A.62.62,0,0,0,56.09,90.2Zm4.8-2.4a.21.21,0,0,1-.15,0,.21.21,0,0,0-.15,0A1.31,1.31,0,0,1,60,88a.89.89,0,0,0-.55.5,4.78,4.78,0,0,0,1.4-.6l-.2.1C60.69,87.93,60.76,87.87,60.89,87.8Zm1-37.2a1.06,1.06,0,0,0,.1-.5c-.27-.07-.35-.17-.25-.3s0-.27-.15-.4c0,.2-.07.28-.2.25a1.83,1.83,0,0,0-.4,0c-.13.07-.17.12-.1.15s0,.12-.1.25C61.46,50.13,61.82,50.33,61.89,50.6Zm-.1-1.6a3.49,3.49,0,0,1,.3-.45.31.31,0,0,0,0-.45c-.2.13-.42.27-.65.4a1.57,1.57,0,0,0-.55.5ZM62,87.5c.07-.27.22-.38.45-.35s.35-.08.35-.35a4,4,0,0,0-.9.3l-.8.4a.31.31,0,0,0,.45,0A.31.31,0,0,1,62,87.5Zm1-32.7c.1.07.18,0,.25-.1l-.4-.2A.34.34,0,0,0,63,54.8Zm1.65-5.9a1.81,1.81,0,0,0,.55-.25q.45-.26.45-.45a3.41,3.41,0,0,1-.55.3A1,1,0,0,0,64.69,48.9Zm1.6,16.7c.07-.13,0-.2-.1-.2s-.17-.07-.1-.2h-.4A4.38,4.38,0,0,0,66.29,65.6Zm3.9-18.8a4.79,4.79,0,0,0,.55,0c.23,0,.28-.12.15-.25a.29.29,0,0,1-.35.15A.29.29,0,0,0,70.19,46.8Zm.4,20.6q-.3-.2-.3.3c.13,0,.2,0,.2-.1A.28.28,0,0,1,70.59,67.4Zm1.3-20.5c.07-.13,0-.2-.3-.2s-.4.07-.4.2ZM78,43a2.56,2.56,0,0,1,.65-.3.64.64,0,0,0,.45-.5A2.42,2.42,0,0,0,78,43Zm2.2,55c0,.33.1.5.3.5C80.49,98.17,80.39,98,80.19,98Zm2.1-61.3a2.31,2.31,0,0,0,1-.4,2.31,2.31,0,0,1,.8-.4A3.14,3.14,0,0,0,82.29,36.7Zm6,35.6a.33.33,0,0,1,.3.2.33.33,0,0,0,.3.2,2.92,2.92,0,0,0-.25-.4C88.54,72.17,88.42,72.17,88.29,72.3Zm4.1-16a1.09,1.09,0,0,0-.3-.8A.74.74,0,0,0,92.39,56.3Zm7.9,48.8a1.74,1.74,0,0,0,.3.4.25.25,0,0,0,.4,0,.45.45,0,0,1-.4-.15A.84.84,0,0,0,100.29,105.1Zm.4,6.7v-.1c.07,0,.1,0,.1-.1v-.1a.69.69,0,0,0-.5-.2C100.29,111.63,100.42,111.8,100.69,111.8Zm3.8-9.6c0-.27-.17-.47-.5-.6A1,1,0,0,0,104.49,102.2Zm6.1,13.7a.29.29,0,0,0,.15-.35c0-.17-.12-.22-.25-.15s-.18.25-.15.35A.23.23,0,0,0,110.59,115.9Zm.2,16c-.07.13,0,0,.25-.35a1,1,0,0,0,.15-1,.94.94,0,0,0-.25.55A6.21,6.21,0,0,1,110.79,131.9Zm1.2-11.5a.67.67,0,0,0-.3-.6Q111.59,120.29,112,120.4Z"/><path class="cls-1" d="M172.19,43.2a.52.52,0,0,1-.65.3,4.19,4.19,0,0,0-.95-.1,12.28,12.28,0,0,0-1.6-.1,4.17,4.17,0,0,1-1.3-.2c-.13,0-.17,0-.1.1s0,.1-.1.1c-1.07,0-2,0-2.75,0a14.46,14.46,0,0,0-2.55.15.85.85,0,0,1-.1-.4,3.47,3.47,0,0,1-1.35,0,1.63,1.63,0,0,0-1.25.25,3.84,3.84,0,0,0-.55,2.3c0,.93.08,1.8.15,2.6a.18.18,0,0,1-.2.2c-.07,0-.1.07-.1.2a3.69,3.69,0,0,1-.15,2,4,4,0,0,0-.15,2,1.36,1.36,0,0,0,.35.65.77.77,0,0,1,.15.75l-.55.55a1.57,1.57,0,0,0-.35.85,3.38,3.38,0,0,0-.8,1.05,5.08,5.08,0,0,0-.6,1.35.88.88,0,0,0,0,.6,1.8,1.8,0,0,1,.1.6.8.8,0,0,1,.05.5,4,4,0,0,0-.05.6,14.72,14.72,0,0,0,.45,1.5,2.51,2.51,0,0,1,.15,1.3,3.07,3.07,0,0,1-.25.55l-.25.45a1.54,1.54,0,0,0,.1,1,2.38,2.38,0,0,1,.2,1,2.7,2.7,0,0,1-.1,1.25,4.09,4.09,0,0,0-.2,1.15,3.27,3.27,0,0,0,.25,1.3,2.09,2.09,0,0,1,.15,1.2.8.8,0,0,1-.4-.8.9.9,0,0,0-.3-.8c-.07,0-.1.1-.1.3a.29.29,0,0,1-.15-.35,1.49,1.49,0,0,1,.15-.45.37.37,0,0,1-.25-.45.94.94,0,0,0-.15-.65c-.07.13-.13.28-.2.45s-.13.32-.2.45a2.24,2.24,0,0,1,.1-1.15c.13-.37.27-.72.4-1.05,0-.6,0-1.18.05-1.75a4,4,0,0,0-.15-1.45,3.17,3.17,0,0,1,0-1.15,2.65,2.65,0,0,0,0-1,6.74,6.74,0,0,0-.8-2.05,1.85,1.85,0,0,1,.2-2.15,1.79,1.79,0,0,1,0-1,2.41,2.41,0,0,0,.15-.65c.2-.13.38-.27.55-.4s.35-.27.55-.4c-.13-.2-.12-.33.05-.4s.18-.2,0-.4l-.2-.2c0-.07-.07-.17-.2-.3.2-1.53.35-3,.45-4.55s.22-3.12.35-4.85a8,8,0,0,0-2.45-.55c-1-.1-2.08-.22-3.15-.35a3.2,3.2,0,0,1-1.2-.4,1.36,1.36,0,0,0-1-.2,1.22,1.22,0,0,0-.7.65,2.15,2.15,0,0,1-.4.65c0,.13.07.18.2.15s.17,0,.1.15c-.47,0-.75.17-.85.5a3.8,3.8,0,0,0-.15,1.1.75.75,0,0,1-.75-.25,1.17,1.17,0,0,0-.85-.35,1.23,1.23,0,0,0-.35,0,1.23,1.23,0,0,1-.35.05,8.17,8.17,0,0,0-3.9-.5,10.58,10.58,0,0,1-3.9-.3,3.29,3.29,0,0,0,.25,2.35,2.29,2.29,0,0,0,1.75,1.25.4.4,0,0,0,.1-.3c0-.13.1-.2.3-.2-.07.4,0,.67.3.8a1.24,1.24,0,0,1,.6.7c0,.2-.07.28-.2.25a.56.56,0,0,0-.4.05,10.93,10.93,0,0,1-.15,1.8,11.52,11.52,0,0,0-.15,1.9,5.41,5.41,0,0,0,0,1.65,5.41,5.41,0,0,1,.05,1.65.49.49,0,0,1-.05.2.78.78,0,0,0,0,.3,3.53,3.53,0,0,0,.3,1.4,1.49,1.49,0,0,1-.1,1.4c-.27.07-.45,0-.55-.15a2.25,2.25,0,0,0-.35-.45c0-.07,0-.08-.15,0s-.15,0-.15-.05v-.4q-.11-.1-.15,0c0,.07-.12.07-.25,0a3.51,3.51,0,0,1-.3-.35.53.53,0,0,0-.4-.25.85.85,0,0,0-.7.4c-.2.27-.4.55-.6.85s-.42.6-.65.9a1.54,1.54,0,0,1-.65.55,1.33,1.33,0,0,0-.1.85,2.57,2.57,0,0,1,.1.75c.27,1.4.5,2.87.7,4.4a17.46,17.46,0,0,0,1,4.1c-.27.93-.08,1.57.55,1.9s1.28.63,2,.9c0,.13,0,.18-.05.15s-.08,0-.15,0a5.89,5.89,0,0,1,1.25,1,2.9,2.9,0,0,0,1.55.75c.07.47.28.73.65.8a3.13,3.13,0,0,1,1,.4c.07.2,0,.37-.3.5a4.69,4.69,0,0,1,0,2.75,30.23,30.23,0,0,0-.6,3.55c-.07.6-.15,1.2-.25,1.8a4.74,4.74,0,0,0,.05,1.8,2.13,2.13,0,0,0,.5,1.15,1.5,1.5,0,0,1,.3,1.25,3.78,3.78,0,0,0-.6.5,1.56,1.56,0,0,1-.8.4,7,7,0,0,0-3.6,4.4.65.65,0,0,1-.2.15.54.54,0,0,0-.2.25c0,.13,0,.17.15.1s.15,0,.15.1a6.51,6.51,0,0,1-.1,2c-.13.6-.27,1.2-.4,1.8s-.25,1.18-.35,1.75a6,6,0,0,0,0,1.75.57.57,0,0,1-.4-.1c-.07.8-.1,1.53-.1,2.2a6.93,6.93,0,0,0,.3,2c.13.07.27,0,.4-.15s.27-.15.4,0a10.38,10.38,0,0,0-.55,1,2.15,2.15,0,0,0-.15,1.25,1.82,1.82,0,0,1-1-.1,2.76,2.76,0,0,0-1.2,2.2c-.13,1.07-.23,2.1-.3,3.1-.07.47-.15,1-.25,1.5a2.82,2.82,0,0,0,.05,1.4,7.53,7.53,0,0,0,.45.95,3.25,3.25,0,0,1,.35,1.05,1.83,1.83,0,0,0,.4.75c.2.23.37.42.5.55a2.65,2.65,0,0,1-.1,1.3,5.69,5.69,0,0,0-.3,1.1q-.19,0-.15-.15t.15-.15c-.13-.2-.27-.23-.4-.1s-.2.17-.2.1q.3-.49.6-.9a.9.9,0,0,0,0-1,1.74,1.74,0,0,0-.3-.4,3.12,3.12,0,0,1-.4-.5,4.28,4.28,0,0,1-.4-1.3,1.67,1.67,0,0,0-.6-1.1.4.4,0,0,0-.1.3c0,.13-.1.17-.3.1-.07-1.27-.08-2.52,0-3.75a23.72,23.72,0,0,1,.35-3.55,3.94,3.94,0,0,0-1.25,1.2c-.37.53-.72,1.07-1.05,1.6a.85.85,0,0,0-.1.4.69.69,0,0,1-.2.5c0,.07,0,.08-.1,0s-.13,0-.2.15a4.68,4.68,0,0,0-.1,2.15,7.74,7.74,0,0,1,0,2.45,3.17,3.17,0,0,1-.5,1.7,5.36,5.36,0,0,0-.7,1.7,2.16,2.16,0,0,0-.05.8,2.82,2.82,0,0,1-.05.9c-.2.87-.43,1.72-.7,2.55a17.67,17.67,0,0,0-.6,2.35,2.59,2.59,0,0,0,.3,2,6.18,6.18,0,0,0-.85,1.35,1.43,1.43,0,0,1-1.45.75,4,4,0,0,1-1.6.6,33.61,33.61,0,0,1-3,3.2,16.13,16.13,0,0,0-2.8,3.5.73.73,0,0,0-.7.6,2.13,2.13,0,0,1-.7,1c-.13-.07-.15-.13-.05-.2s.15-.13.15-.2-.22.08-.25.25-.12.25-.25.25a14.48,14.48,0,0,1-.6,2.25,14.48,14.48,0,0,0-.6,2.25,1.66,1.66,0,0,0-.15.55.94.94,0,0,1-.25.55,2.63,2.63,0,0,1-.6.9,2.63,2.63,0,0,0-.6.9,4.36,4.36,0,0,0-.25,2.15A3.84,3.84,0,0,1,114,153q-.19,0-.15-.15a.23.23,0,0,0,0-.25,5.15,5.15,0,0,0-.45.55,1.4,1.4,0,0,0-.25.85q-1,1.2-2.1,2.4c-.73.8-1.47,1.57-2.2,2.3a4.17,4.17,0,0,0-.35.4.26.26,0,0,1-.35.1c.8-.93,1.62-1.82,2.45-2.65a29.65,29.65,0,0,0,2.35-2.65c0-.13,0-.18-.1-.15a.78.78,0,0,1-.3.05c.13-.2.28-.42.45-.65a.85.85,0,0,0,.15-.75,2.34,2.34,0,0,0,.9-2.1c-.2,0-.33.22-.4.65a2.58,2.58,0,0,1-.3,1,1.73,1.73,0,0,1,.1-1,6.33,6.33,0,0,0,.3-1c0-.13,0-.18.1-.15s.17,0,.3-.15a5.36,5.36,0,0,1,.7-1.9,4.18,4.18,0,0,0,.6-1.8,4.09,4.09,0,0,1,.5-2,6.5,6.5,0,0,0,.7-2,1.63,1.63,0,0,1,0-1.05,9.94,9.94,0,0,1,.35-1c.07-.2,0-.32,0-.35a.23.23,0,0,1-.15-.25,4,4,0,0,1,.55-.95c.23-.3.42-.55.55-.75a.58.58,0,0,1,.25-.15q.15,0,.15.15c.07-.27.17-.58.3-.95a2.15,2.15,0,0,1,.7-1c.13-.07.2,0,.2.1a.4.4,0,0,0,.1.3,7.69,7.69,0,0,0,3.15-2.2,10.82,10.82,0,0,1,2.85-2.4.42.42,0,0,1,.25,0,.21.21,0,0,0,.15.05,3.35,3.35,0,0,0,1-1.85,17.08,17.08,0,0,1,.65-2.25c.27-.73.52-1.4.75-2a7.76,7.76,0,0,0,.45-2.1v-.5c.13,0,.15.08.05.25s-.08.25,0,.25v-1.9a1.71,1.71,0,0,1,.7-1.5c0-1,0-2.17,0-3.5a29.82,29.82,0,0,1,.25-3.4,5.63,5.63,0,0,1,.1-1c.07-.37-.17-.48-.7-.35a2.5,2.5,0,0,1,.55-.85,2.36,2.36,0,0,0,.55-1c.13-.07.2-.07.2,0s0,.2.1.2c.33-.2.67-.42,1-.65a1.82,1.82,0,0,0,.7-1,4.76,4.76,0,0,0,1.05-1,13.63,13.63,0,0,1,.95-1,3.48,3.48,0,0,1,.25-1.7,9.46,9.46,0,0,0,.5-3.5,3.45,3.45,0,0,1,.15-1.3c.07-.13.07-.22,0-.25a.16.16,0,0,0-.2,0,6.68,6.68,0,0,0,.3-3,30.23,30.23,0,0,1-.2-3.55.18.18,0,0,0-.2-.2c-.13,0-.17-.1-.1-.3a2.18,2.18,0,0,1,.9-1.55,2.18,2.18,0,0,0,.9-1.55.2.2,0,0,0,.3-.1,1.74,1.74,0,0,1,.3-.4h.3c.07,0,.17-.17.3-.5a10,10,0,0,1,1.15-.7,1.94,1.94,0,0,0,1-.9.9.9,0,0,0-.1-.75c-.13-.17-.1-.38.1-.65a7,7,0,0,1-.85-3.35,18.15,18.15,0,0,0-.35-3.35.46.46,0,0,0-.3-.25.88.88,0,0,1-.4-.25,1.82,1.82,0,0,0-.15-1.2,2.74,2.74,0,0,1-.35-1c-.6-.73-1.15-1.47-1.65-2.2a20.57,20.57,0,0,0-1.65-2.1.57.57,0,0,0-.4-.1,2.63,2.63,0,0,0-1-1.7,2.63,2.63,0,0,1-1-1.7c.27-.07.38-.4.35-1s-.25-.87-.65-.8c0-.13.1-.2.3-.2a10.1,10.1,0,0,0,0-2.8,13.12,13.12,0,0,1,0-3.2c-.13-.13-.23-.2-.3-.2.13.07.22-.1.25-.5a2.4,2.4,0,0,0-.05-.9.85.85,0,0,0,.25-.45.85.85,0,0,1,.25-.45q.19-.2.15,0a.25.25,0,0,0,.15.3,5.62,5.62,0,0,1,1-.5,1,1,0,0,0,.65-.8c.13-.07.2,0,.2.1a.28.28,0,0,0,.1.2c.33-.2.68-.43,1-.7a1.52,1.52,0,0,0,.65-.9c.13.13.25.15.35.05a1.48,1.48,0,0,1,.35-.25c0-.53,0-1-.05-1.45a12.21,12.21,0,0,0-.15-1.25,5.62,5.62,0,0,1-1.15-1A3.41,3.41,0,0,1,135,50a.94.94,0,0,1-.05-.55c0-.23-.08-.38-.35-.45s-.22-.15-.25,0-.15.12-.35,0-.63-.4-.9-.6a2.75,2.75,0,0,1-.7-.8c-.13,0-.2,0-.2.1s-.1-.13-.1-.4a2.38,2.38,0,0,1-.7-1.4,4.94,4.94,0,0,0-.5-1.6,11,11,0,0,1-2.15,0,5.49,5.49,0,0,0-1.85.1.59.59,0,0,0-.4-.2.59.59,0,0,1-.4-.2.68.68,0,0,0-.25-.75c-.23-.17-.45-.32-.65-.45a1,1,0,0,0-.75.1.6.6,0,0,1-.55.1,1.31,1.31,0,0,1,.5-.3,3.69,3.69,0,0,0,.5-.2,8.34,8.34,0,0,1-.9-1.35,1.81,1.81,0,0,0-1.2-.95,2.33,2.33,0,0,0-1.35.2,1.11,1.11,0,0,1-1.25-.2,1.48,1.48,0,0,0-.9-.9,3.37,3.37,0,0,1-1.1-.6,1,1,0,0,1-.25-.35,1,1,0,0,0-.25-.35,13.2,13.2,0,0,0-1.3-1,3.11,3.11,0,0,1-1.1-1.25,4.94,4.94,0,0,1-2.2.4c-1.33.13-2.78.27-4.35.4a23.14,23.14,0,0,1-4.25,0,.54.54,0,0,1,.2-.25c.07,0,.1-.12.1-.25s0-.2-.1-.2a.4.4,0,0,1-.3-.1.91.91,0,0,0-.65-.85l-1.25-.35a6.54,6.54,0,0,0-.5,2.7,25.7,25.7,0,0,1-.2,3.1c-.07.67-.17,1.33-.3,2a4.67,4.67,0,0,0,0,1.9,3.62,3.62,0,0,0,.8,1.6,3.66,3.66,0,0,1,.8,1.5c.13,0,.2,0,.2.1.2.07.33.07.4,0a.57.57,0,0,1,.4-.1.54.54,0,0,0,.2.45,4.17,4.17,0,0,1,.4.35,4.22,4.22,0,0,0-1,2.45,7.82,7.82,0,0,0,.25,3,33.89,33.89,0,0,1,.75,3.65,3.16,3.16,0,0,0,1.45,2.45.78.78,0,0,0,0,.3.78.78,0,0,1,.05.3,9.2,9.2,0,0,0,1.55.7,3.79,3.79,0,0,1,1.45.9,2.21,2.21,0,0,1,.4.6c.13.27.27.53.4.8a3.46,3.46,0,0,0,1,.8,6.77,6.77,0,0,1,1.2,1,4.43,4.43,0,0,1,.85,1.15,1.93,1.93,0,0,1,0,1.5,2.82,2.82,0,0,0-.5-1.75,5.48,5.48,0,0,0-1.2-1.15c-.47-.33-1-.67-1.5-1a3.44,3.44,0,0,1-1.2-1.2l-1.45-.55a3.37,3.37,0,0,1-1.15-.75,6.14,6.14,0,0,0-.4,3.15,12.46,12.46,0,0,0,.7,3,8.62,8.62,0,0,0,.3,2.9,2.49,2.49,0,0,0,1.7,1.9c-.2.27-.07.53.4.8a1.75,1.75,0,0,0-.2,1.2,2.41,2.41,0,0,0,.5,1.2c.2.07.25,0,.15,0s0-.12.15,0a5.4,5.4,0,0,0,.45.9c.17.27.35.53.55.8a2.16,2.16,0,0,0,.1,1.45,1.82,1.82,0,0,1,0,1.45,6.44,6.44,0,0,1-.7-2,4.47,4.47,0,0,0-.9-2,.42.42,0,0,0-.25,0,.42.42,0,0,1-.25,0,3,3,0,0,1-.45-1.55,2.57,2.57,0,0,0-.55-1.55.18.18,0,0,0-.2.2.85.85,0,0,1-.25-.45c0-.17-.18-.25-.45-.25a1.17,1.17,0,0,0-.15-.9,8.06,8.06,0,0,1-.45-.8.18.18,0,0,0-.2.2c0,.13-.1.17-.3.1q-.19-.41,0-.6a4.9,4.9,0,0,1-.7-3.05,20.77,20.77,0,0,0-.1-3.55,17,17,0,0,0-1-3.55,25.45,25.45,0,0,1-1-3.35,2.55,2.55,0,0,1-.7-1.6,6.73,6.73,0,0,1,.1-2,2.15,2.15,0,0,1,.15-.85,1.86,1.86,0,0,0,.15-.75,2.46,2.46,0,0,0-.35-.65,4.66,4.66,0,0,1-.45-.75c-.13-.27-.25-.5-.35-.7a6.21,6.21,0,0,0-.35-.6,2.15,2.15,0,0,0-.4-.7,1.43,1.43,0,0,1-.3-.7,8.32,8.32,0,0,0-1.2-.8,11.31,11.31,0,0,0-.55-1.9,14.45,14.45,0,0,1-.55-1.7.88.88,0,0,1,.25.5.48.48,0,0,0,.35.4,5.77,5.77,0,0,0,.1-1.3,2.16,2.16,0,0,1,.4-1.4.15.15,0,0,0-.1-.15c-.07,0-.1-.12-.1-.25s.18,0,.15-.1,0-.1.15-.1a.68.68,0,0,1,.05-.75.85.85,0,0,0,0-.85.94.94,0,0,0-.25.55.56.56,0,0,1-.25.45,4.19,4.19,0,0,1,.1-1c.07-.3.13-.72.2-1.25a3.22,3.22,0,0,1,.45-1.25,1.7,1.7,0,0,0,.15-1.35,2.79,2.79,0,0,0-.4-1.15,2,2,0,0,1-.3-1.15,3.71,3.71,0,0,0-2.1-.85,23.57,23.57,0,0,1-2.6-.45c.13-.13.35-.15.65-.05a.9.9,0,0,0,.65.05,2.68,2.68,0,0,0-1.35-1l-1.65-.6c.07-.13.22-.17.45-.1a1.2,1.2,0,0,1,.45.2c0-.07,0-.13.15-.2a.84.84,0,0,0,.25-.3,5.07,5.07,0,0,1,.75.25,1.11,1.11,0,0,0,.85-.05c0-.27-.08-.42-.25-.45s-.22-.18-.15-.45a1.7,1.7,0,0,1,.5.5c.13.2.4.27.8.2a1.05,1.05,0,0,0,.65.55l.9.3a7.2,7.2,0,0,1,.85.35.94.94,0,0,1,.5.7,5.37,5.37,0,0,0,.1-2.3,3.56,3.56,0,0,1-.5-.95c-.13-.37-.27-.72-.4-1.05-.2,0-.5-.23-.9-.7s-.63-.57-.7-.3a3.27,3.27,0,0,0-.6-1.3l-.8-1c.13-.2.08-.42-.15-.65s-.45-.32-.65-.25c0-.07,0-.07.05,0s0,0,0-.1a2.35,2.35,0,0,1-1.15-1.25,2.8,2.8,0,0,0-1.15-1.35c.27-.33.2-.7-.2-1.1,0-.13,0-.18.1-.15a.16.16,0,0,0,.2-.05,6.84,6.84,0,0,0-.9-2,6.67,6.67,0,0,1-.9-2.1c.27,0,.4-.1.4-.3a6.22,6.22,0,0,1,1.15,2.35A19.06,19.06,0,0,0,93,19.7a2.09,2.09,0,0,1,1.25.85,2.09,2.09,0,0,0,1.25.85,2.77,2.77,0,0,0,1.05,2,3,3,0,0,1,1.15,1.9,3.57,3.57,0,0,1,1.4,1.35,3.57,3.57,0,0,0,1.4,1.35,1.68,1.68,0,0,0,.65,1c.3.2.62.43,1,.7a1.19,1.19,0,0,0,.5,1.1c0,.33,0,.53-.1.6s.13.15.2.05.17-.08.3.05.15.22.05.25-.12.15-.05.35a2.74,2.74,0,0,1,2.05.15,2.62,2.62,0,0,0,1.85.25,7.14,7.14,0,0,0,1.5-.35,2.54,2.54,0,0,1,1.5,0l.8.2a7.88,7.88,0,0,1,.9.3q1,.4,2,.9a5.36,5.36,0,0,0,1.75.6.49.49,0,0,0,.2-.05.78.78,0,0,1,.3,0,5.44,5.44,0,0,1,1.2.35q.6.26,1.2.45a1.61,1.61,0,0,0,.7,1,8.67,8.67,0,0,1,1,.7,2.31,2.31,0,0,1,.4.8.88.88,0,0,0,.5.6,2,2,0,0,0,1.8.15,2,2,0,0,1,1.8.15,5.29,5.29,0,0,0,2.35,2.15,5.37,5.37,0,0,0,3.65.25.46.46,0,0,0,.25-.3.46.46,0,0,1,.25-.3c.13,0,.2,0,.2.1s.07.1.2.1a.58.58,0,0,0,.1-.55c-.07-.17-.13-.32-.2-.45a25.22,25.22,0,0,1-.1-3.9,4.09,4.09,0,0,0-.9-3.1,1.54,1.54,0,0,0-.6-.25,2.59,2.59,0,0,1-.7-.25,7,7,0,0,1-2-1.45,3.08,3.08,0,0,1-1-2.25,1.26,1.26,0,0,1,.4.7.77.77,0,0,1,.45-.05.77.77,0,0,0,.45,0,29.72,29.72,0,0,0-3-7.7l.2.2a1.16,1.16,0,0,0-.35-.7.84.84,0,0,1-.25-.7.28.28,0,0,1-.2.1c.07-.07.07-.1,0-.1s0-.1-.1-.1h-.1q-.11-.2,0-.15c.07,0,.1,0,.1-.15a1.87,1.87,0,0,0-.35-.6.59.59,0,0,1-.15-.6,2.25,2.25,0,0,1,.35.45,3.07,3.07,0,0,1,.25.55q.19.2.3,0t.3,0a47.47,47.47,0,0,1,2.5,5.45,47.47,47.47,0,0,0,2.5,5.45,1,1,0,0,1,.75.25,1.46,1.46,0,0,0,.75.35.46.46,0,0,0-.05-.6.89.89,0,0,1-.15-.8.71.71,0,0,1,.4.7,1.25,1.25,0,0,0,.2.7.8.8,0,0,0,.7.55,1.08,1.08,0,0,1,.8.45c.13-.33.23-.6.3-.8s.13-.43.2-.7a.64.64,0,0,1,.35.7c0,.33-.05.67-.05,1,.07.73.17,1.5.3,2.3s.23,1.57.3,2.3c.13,0,.2,0,.2-.1a3.41,3.41,0,0,0,.1,1.8q.3,1,.6,1.8a.63.63,0,0,1,.4.6,7.71,7.71,0,0,0,1.15.55,2.58,2.58,0,0,0,1.35.15,1.31,1.31,0,0,0,1.25.35,4.72,4.72,0,0,1,1.55,0,2.24,2.24,0,0,1,.65.1,2.24,2.24,0,0,0,.65.1,9,9,0,0,0,1.55-.15L145,41.3a1.26,1.26,0,0,0,.4-.7.57.57,0,0,0-.1-.4.88.88,0,0,0,.25-.5c0-.2.18-.33.45-.4-.13-.2-.13-.37,0-.5a5,5,0,0,1,1.45.4,1.59,1.59,0,0,0,1.35,0,.4.4,0,0,0,.1.3c1.47.33,2.85.63,4.15.9s2.72.53,4.25.8a.31.31,0,0,0,0-.45.44.44,0,0,1,0-.55,6.46,6.46,0,0,1-1-2.3,3.87,3.87,0,0,0-1.2-2.1.33.33,0,0,1,.2-.3.33.33,0,0,0,.2-.3,2.64,2.64,0,0,1,.35-2,2.18,2.18,0,0,0,.25-1.9c-.2-.07-.33-.05-.4.05a.34.34,0,0,1-.3.15c.07-.27.33-.47.8-.6a17.27,17.27,0,0,0-.8-6.6,3.68,3.68,0,0,1,.7,1.9,11,11,0,0,0,.4,2.1,4.38,4.38,0,0,0,.4.6.44.44,0,0,0,0-.45.92.92,0,0,1-.15-.45c.4.07.67.38.8.95a9.09,9.09,0,0,0,.5,1.55,2.06,2.06,0,0,1-.5.3,2.06,2.06,0,0,0-.05-1c-.1-.4-.25-.63-.45-.7a1,1,0,0,1,.1,1c-.13.4,0,.63.4.7a7.54,7.54,0,0,0-.35,3.1,4.8,4.8,0,0,0,1,2.6,3.38,3.38,0,0,0,1.4,2.4,2.6,2.6,0,0,1,.35,1.2,2,2,0,0,0,.35,1.1c.07.13,0,.2-.1.2s-.1.07-.1.2c.6.13,1.18.25,1.75.35a1.44,1.44,0,0,0,1.35-.35,7.16,7.16,0,0,1,1.3.5,4.42,4.42,0,0,0,1.4.4,1.55,1.55,0,0,0,.8,0,2,2,0,0,1,.9,0,9.86,9.86,0,0,1,2.4.3A15.66,15.66,0,0,0,172.19,43.2ZM95.59,22.8a.88.88,0,0,1-.25-.5.51.51,0,0,0-.25-.4v.2c-.07,0-.1.07-.1.2a.47.47,0,0,1,.25.25C95.27,22.65,95.39,22.73,95.59,22.8Zm4,11.9c0-.73-.17-1.13-.5-1.2a1.25,1.25,0,0,1,.2.7A.58.58,0,0,0,99.59,34.7Zm5.1,25c.13.07.2,0,.2-.1s-.07-.3-.2-.3-.07.2,0,.2Zm23.1-29.5c.07-.27,0-.4-.2-.4s-.27-.1-.2-.3c.13.27.2.27.2,0a1,1,0,0,0-.2-.7,3.64,3.64,0,0,0-.5.05.8.8,0,0,1-.5-.05,2,2,0,0,0,.5.95A1.2,1.2,0,0,0,127.79,30.2Zm3.1,81.6a.26.26,0,0,1,.1-.35c.13-.1.1-.15-.1-.15a.45.45,0,0,1-.1.25C130.72,111.65,130.76,111.73,130.89,111.8Zm5.7-59.9c-.13-1.2-.57-1.93-1.3-2.2A2.2,2.2,0,0,0,136.59,51.9Zm.8,47.5c.13-.67.3-1.35.5-2.05a5.77,5.77,0,0,0,.2-2.15,4.13,4.13,0,0,0-.55,2C137.51,98.08,137.46,98.8,137.39,99.4Zm18.3-43.5a.9.9,0,0,0,.35-.35c.1-.17.12-.28.05-.35a.47.47,0,0,1-.25.25Q155.69,55.49,155.69,55.9Zm2.5-4.3c.13-.73.23-1.47.3-2.2a4.83,4.83,0,0,0-.2-2,6.23,6.23,0,0,1,0,2.35A3.89,3.89,0,0,0,158.19,51.6Z"/><path class="cls-1" d="M193.14,37.25a3.32,3.32,0,0,0,.25-2,7.82,7.82,0,0,0-.65-1.65c-.3-.57-.55-1-.75-1.45-.34,0-.54,0-.6-.1a7.74,7.74,0,0,1,.2-.85.87.87,0,0,0-.2-.75,3.49,3.49,0,0,1,.9-1.35,2.92,2.92,0,0,0,.8-1.65,2.17,2.17,0,0,0,.5-.45,1,1,0,0,1,.5-.35,9.64,9.64,0,0,1,.4-.9.92.92,0,0,1,.7-.5.76.76,0,0,1,.15.55,3,3,0,0,0-.05.65,9.66,9.66,0,0,0,1.1-.65l1.1-.75c.13,0,.18,0,.15.1s0,.13.15.2a1.22,1.22,0,0,1,.65-.7,1.25,1.25,0,0,0,.65-.7,2.81,2.81,0,0,1-.4-1.85,10.18,10.18,0,0,1,.4-2.05c-.07-.13-.14-.13-.2,0s-.1.13-.1,0a2.78,2.78,0,0,1,1.1-.7,1.28,1.28,0,0,0,.8-1,1.33,1.33,0,0,1-.15-.75,1.11,1.11,0,0,0-.15-.65q.2-.11.15,0c0,.07,0,.1.05.1a4.46,4.46,0,0,1,.8-1.5,3.64,3.64,0,0,0,.7-1.6,5.42,5.42,0,0,0,1.35-1.5,19.42,19.42,0,0,1,1.15-1.7c.06-.13.06-.2,0-.2s-.07-.07,0-.2A3.39,3.39,0,0,0,206,8.15a6.22,6.22,0,0,1,1.25-2.55,1.4,1.4,0,0,0-.25.6,1,1,0,0,1-.25.5,3.87,3.87,0,0,1-.6,2.2,4.07,4.07,0,0,0-.6,2.3,4.52,4.52,0,0,1-.65.85,2.36,2.36,0,0,0-.55.85,10.71,10.71,0,0,0-1.7,1.65,7.41,7.41,0,0,0-1.2,2.25,1.81,1.81,0,0,0-.15.95,2,2,0,0,1-.15.95,4.73,4.73,0,0,1-.85,1.55,3,3,0,0,0-.65,1.75,2.29,2.29,0,0,0,.15,1.25c.16.43.31.82.45,1.15a4.29,4.29,0,0,1-1.65,1.7,8.54,8.54,0,0,1-2.45.9A5.05,5.05,0,0,1,195,28.3a4.71,4.71,0,0,0-1.15,1.3,6,6,0,0,1,.65,2.65,5.22,5.22,0,0,0,.65,2.55c-.07.8-.12,1.58-.15,2.35a18.22,18.22,0,0,1-.25,2.25c-.14.07-.22.07-.25,0s-.12-.07-.25,0a1.46,1.46,0,0,1-.2.8,1.2,1.2,0,0,0-.1.9.93.93,0,0,1-.5.5c-.54,1.67-1.05,3.37-1.55,5.1a16.86,16.86,0,0,0-.55,5.8,5,5,0,0,0-.85,1.1,3.58,3.58,0,0,0-.45,1.5q-.1-.2-.3,0a3.22,3.22,0,0,1-.4,1,1.93,1.93,0,0,0-.3,1,.84.84,0,0,0,.4.65,1.21,1.21,0,0,1,.5.65c.13.07.21.05.25,0s.11-.15.25-.15a8.39,8.39,0,0,0,2.15,3.1c.9.8,1.81,1.67,2.75,2.6a.42.42,0,0,0,.35-.25c.1-.17.21-.18.35,0a4.07,4.07,0,0,1-.7,1.45,5.85,5.85,0,0,0-.8,1.35q-.1.19,0,.3a.27.27,0,0,1,0,.3,1.56,1.56,0,0,1-.35.55,3.38,3.38,0,0,0-.45.55,1.82,1.82,0,0,0,.15,1.4,1.47,1.47,0,0,1-.15,1.5c-.14-.13-.2-.23-.2-.3a1,1,0,0,0-.1-.4.51.51,0,0,0-.15.5,7,7,0,0,0,.15.7c-.34.13-.54,0-.6-.25a2.17,2.17,0,0,1,0-1,4.15,4.15,0,0,1-1.1-1.8,2.8,2.8,0,0,0-1.35.5,1.56,1.56,0,0,1-1.35.2,12.78,12.78,0,0,1-3.2,1.25,6.82,6.82,0,0,0-3,1.55.89.89,0,0,0-1.15.25,1.06,1.06,0,0,1-1.05.45,2,2,0,0,1-.6,1.25c-.34.3-.67.62-1,1a.62.62,0,0,0,.65.2,2.24,2.24,0,0,1,.65-.1,6.11,6.11,0,0,1,2.45-.1,10.13,10.13,0,0,0,2.45.1,2.08,2.08,0,0,1,1.8-.3c.86.13,1.6.23,2.2.3.13,0,.2,0,.2-.1a.18.18,0,0,1,.2-.2,5.42,5.42,0,0,0,2.35-.1l2.25-.7a12.58,12.58,0,0,0,1.5.15,1,1,0,0,0,1.1-.75,1.74,1.74,0,0,0,1-.1,6.87,6.87,0,0,1,1-.3,2.48,2.48,0,0,1,.85-.05,1,1,0,0,1,.7.55l.8-.2a1,1,0,0,0,.6-.4,1.45,1.45,0,0,0,.9.1,1.46,1.46,0,0,1,.9.1,1.43,1.43,0,0,1,.75,1A5.28,5.28,0,0,0,205,75.3l.35.35a1.48,1.48,0,0,1,.25.35,6,6,0,0,0,1,.3.94.94,0,0,1,.7.6.6.6,0,0,1-.8.35,4.32,4.32,0,0,0-1-.15,3.17,3.17,0,0,1-.85.75l-1,.65a4.17,4.17,0,0,0-.9.7,1.07,1.07,0,0,0-.3,1,1,1,0,0,0-.6.35,2.17,2.17,0,0,1-.5.45v-.2c.06,0,.13-.07.2-.2a10.65,10.65,0,0,0-2.1,1.5,5.49,5.49,0,0,0-1.5,2.3c.13,1,.3,2,.5,3.15s.36,2.22.5,3.35a5.64,5.64,0,0,1,.15,1.65,5,5,0,0,0,.15,1.65.66.66,0,0,0,.15.4,2.92,2.92,0,0,1,.25.4,6.15,6.15,0,0,1,.1,1.1v1a.18.18,0,0,1-.2-.2.41.41,0,0,0-.2-.4c-.14.53-.32,1.15-.55,1.85a13.32,13.32,0,0,0-.55,2.35,4.28,4.28,0,0,0,.5,2.8c.46.8.9,1.57,1.3,2.3-.07.33,0,.57.1.7a1,1,0,0,1,.2.7.18.18,0,0,1-.2.2.26.26,0,0,0-.2.1,2.41,2.41,0,0,0,.15.65,1.56,1.56,0,0,0,.35.65c.13.07.2,0,.2-.1s.06-.1.2-.1a3.07,3.07,0,0,1,1.3,1.3,3,3,0,0,0,1.3,1.3c.53.6,1.08,1.17,1.65,1.7s1.11,1.07,1.65,1.6a.56.56,0,0,1,.7-.25,2.5,2.5,0,0,0,.9.15c-.07.27-.34.47-.8.6q0-.19.15-.15t.15-.15c-.07-.07-.17,0-.3,0s-.2.18-.2.25.28.42.45.65a.67.67,0,0,0,.75.25c0,.67.23,1,.7,1a3.39,3.39,0,0,1,1.3.35.32.32,0,0,0,.1-.5q-.21-.3.3-.3a5.51,5.51,0,0,1,.1,1.8,1.3,1.3,0,0,0,.6,1.4,10.34,10.34,0,0,0-.35,3.75c.1,1.37.21,2.65.35,3.85l1.55,1a5.43,5.43,0,0,1,1.35,1.15c0,.27-.07.4-.2.4a2,2,0,0,0,.55.55.53.53,0,0,0,.65.05,2.55,2.55,0,0,0,.85,1.1,4.12,4.12,0,0,1,.95,1,2.49,2.49,0,0,1,.5,1.15,3,3,0,0,0,.4,1.15c.33.53.66,1,1,1.55a5,5,0,0,1,.7,1.65,2.09,2.09,0,0,0,0,1.75,5.65,5.65,0,0,1,.35,1.95c-.14.13-.24.15-.3.05s-.14-.08-.2.05a2.7,2.7,0,0,0-.1,2.2c0,.13,0,.22-.1.25a.49.49,0,0,0-.2.25,2.44,2.44,0,0,1,0,1.45l-.5,1.25a5,5,0,0,0-.35,1.15,1.24,1.24,0,0,0,.3,1.05,1,1,0,0,1-.1.7,2.25,2.25,0,0,0,.5,1,1.75,1.75,0,0,1,.4,1.1.45.45,0,0,1-.1.3.4.4,0,0,0-.1.3.62.62,0,0,0,0,.45,3.12,3.12,0,0,1,0,.55c-.14.8-.29,1.62-.45,2.45a11,11,0,0,1-.65,2.15,10.36,10.36,0,0,0,.25-1.85c0-.7.05-1.38.05-2.05s0-1,0-1.4a1.37,1.37,0,0,0-.45-1.1.27.27,0,0,0-.05.4.37.37,0,0,1,.05.4,2,2,0,0,1-.35-1.55,1.7,1.7,0,0,0-.35-1.45c-.14-.13-.27-.12-.4,0a.55.55,0,0,1-.4.25q-.3,0,0-.15c.2-.1.3-.22.3-.35a1.53,1.53,0,0,0-.15-.25s-.05-.12-.05-.25c.26.33.5.3.7-.1s.16-.7-.1-.9c-.2,0-.29.08-.25.25s0,.22-.15.15a.76.76,0,0,1,.25-.55,1.22,1.22,0,0,0,.3-1.4c-.1-.3,0-.52.35-.65a1.46,1.46,0,0,1,.2.8,2.52,2.52,0,0,0,.1.8,3.86,3.86,0,0,1,.5-1.5,1.71,1.71,0,0,0,.1-1.5,16.25,16.25,0,0,0,.6-2.6,4,4,0,0,0-.4-2.5c-.2,0-.25.08-.15.25s0,.22-.15.15,0-.3.2-.5a5.24,5.24,0,0,1-.7-2,1.94,1.94,0,0,0-1.3-1.6c-.87-1.07-1.74-2.1-2.6-3.1l-2.6-3c-.34.13-.55.1-.65-.1a.56.56,0,0,0-.55-.3c-.14,0-.22.1-.25.3s-.12.27-.25.2a1,1,0,0,1-.2-.6.69.69,0,0,0-.2-.5c-.14-.13-.15-.23-.05-.3a.84.84,0,0,0,.25-.3.65.65,0,0,1-.1-.65.54.54,0,0,0-.3-.65,2.16,2.16,0,0,0-.2-1.25,8,8,0,0,1-.5-1.45,14,14,0,0,1-.3-1.85,4.38,4.38,0,0,0-.5-1.65,2.51,2.51,0,0,0-.75-.8,3,3,0,0,1-.75-.7c-.2.13-.22.22,0,.25s.25.12.25.25a12.11,12.11,0,0,1-1.65-1.55,3.13,3.13,0,0,0-1.85-1c.06-.13.23-.13.5,0,0,.07,0,.1.1.1l-.1-.1a4,4,0,0,0-1.8-1.3,5.13,5.13,0,0,1-1.9-1.2c-.14,0-.22,0-.25.15s-.15.08-.35,0a1.2,1.2,0,0,0-.5-.85,1.23,1.23,0,0,1-.5-1,.7.7,0,0,0-.45.5,4.89,4.89,0,0,1-.25.8,2,2,0,0,1-.3.55,2.18,2.18,0,0,0-.3.45c-.07.13-.09.23,0,.3a.78.78,0,0,1,0,.3l-.35.7a1.19,1.19,0,0,0-.15.5,2.84,2.84,0,0,0,.25,1.1,6,6,0,0,1,.35,1.2,7.75,7.75,0,0,1,.25,1.35,6.24,6.24,0,0,0,.25,1.35.58.58,0,0,0,.5.3.84.84,0,0,0-.1,1.15,1.07,1.07,0,0,1,.1,1.15.4.4,0,0,1-.2-.4,1,1,0,0,0-.1-.4,1.53,1.53,0,0,0-.55.9,8.91,8.91,0,0,1-.35,1.1.9.9,0,0,1,.05-.65,8.34,8.34,0,0,1,.35-.9,2,2,0,0,0,.2-.75c0-.2-.2-.27-.6-.2.53-.33.66-.73.4-1.2a5.74,5.74,0,0,1-.6-1.5,8.5,8.5,0,0,1-.15-1.15,5.77,5.77,0,0,0-.25-1.25c-.14-.33-.25-.63-.35-.9a2,2,0,0,1-.15-.6,2.81,2.81,0,0,1,.45-1.45,6,6,0,0,0,.65-1.55,3.65,3.65,0,0,0,.1-.8v-.8a11.11,11.11,0,0,1,.3-3.35,6.47,6.47,0,0,0-.1-3.35c-.07-.13-.07-.2,0-.2s.1-.07.1-.2a.58.58,0,0,1-.15-.25q-.06-.15-.15-.15-.4.1-.3.45a.79.79,0,0,1-.1.65,8.19,8.19,0,0,1-.05-1.65.91.91,0,0,0-.75-1c-.07-.33-.14-.65-.2-1a1,1,0,0,0-.4-.65,19.89,19.89,0,0,1,.15-2.55,17.47,17.47,0,0,0,.15-2.25,3.16,3.16,0,0,0-.3-1.35,8.7,8.7,0,0,1-.5-1.35q-.3-1.7-.45-3.45c-.1-1.17-.22-2.35-.35-3.55a1.53,1.53,0,0,0-.15-.25.78.78,0,0,1-.15-.25,10,10,0,0,1,2.2-5.1l.5-.7a1.46,1.46,0,0,0,.2-.8c.26.33.51.3.75-.1a2.29,2.29,0,0,0,.35-.8c-.07-.6-.49-.87-1.25-.8a3.33,3.33,0,0,1-1.75-.2,6,6,0,0,1-2,.1,17,17,0,0,1-2-.3,3.17,3.17,0,0,1-1.4.1,3.27,3.27,0,0,0-1.6.2,4.77,4.77,0,0,0-2.05,0l-2.15.45a12.22,12.22,0,0,0-3-1.2c-1.07-.27-2.17-.5-3.3-.7q-.6.8-1.5,1.8a4.3,4.3,0,0,0-1.1,2.2,6.26,6.26,0,0,0,.05,2.4c.16.8.31,1.67.45,2.6a6.63,6.63,0,0,0-.75,3.55,12.81,12.81,0,0,1-.45,3.85,7,7,0,0,1-.25-2.85c.1-1.1.21-2.08.35-3a1.82,1.82,0,0,0-.1-1,4.75,4.75,0,0,1-.3-1,14.54,14.54,0,0,1-.4-2.2q-.11-1-.3-2.1a.58.58,0,0,0-.35.1c-.1.07-.22,0-.35-.1a1.49,1.49,0,0,0,.7-1.4c.26-.33.51-.67.75-1a1.89,1.89,0,0,0,.35-1.1,4.17,4.17,0,0,0,.35-.4,1.79,1.79,0,0,0,.25-.5q.09-.19-.3-.15c-.27,0-.3,0-.1-.15a6.9,6.9,0,0,0-2.75.3,23.52,23.52,0,0,1-2.45.7,2.64,2.64,0,0,1,.05,1.35A1.71,1.71,0,0,0,169,79.6c.2.13.33.13.4,0s.16-.13.3,0a1.49,1.49,0,0,1-.45.9,1.64,1.64,0,0,0-.45,1.1c-.2,0-.3-.07-.3-.2a1.36,1.36,0,0,0-.6,1.1,2,2,0,0,0,.2,1.3,2.08,2.08,0,0,0-.6,1.3,3.45,3.45,0,0,1-.25.8,3,3,0,0,0-.25.8.6.6,0,0,0,.1.35.68.68,0,0,1,.1.35,3.12,3.12,0,0,1-.05.55,1.93,1.93,0,0,0,0,.45,2.06,2.06,0,0,0,.7,1,1.62,1.62,0,0,1,.6,1,.18.18,0,0,1-.2.2c-.14,0-.2,0-.2.1.06.33.16.77.3,1.3a3.78,3.78,0,0,0-.3,3.5,5.83,5.83,0,0,0,0,2.75,3.89,3.89,0,0,1-.15,2.55,3.6,3.6,0,0,1-.35-2.15,5,5,0,0,0-.35-2.45V96c.06,0,.13-.07.2-.2a10.22,10.22,0,0,1-.5-2.65,12.75,12.75,0,0,0-.5-2.75q-.81-1-1.65-.15l-1.65,1.65a9.36,9.36,0,0,0-1.2,1.7,4.61,4.61,0,0,1-1,1.3c-.07.53-.17,1.1-.3,1.7a3.49,3.49,0,0,0,0,1.7,1.38,1.38,0,0,0,.55.85,7.64,7.64,0,0,1,.75.65,1.93,1.93,0,0,1,.35-.15c.1,0,.21,0,.35.15a.42.42,0,0,0-.05-.25s0-.12.05-.25a6.9,6.9,0,0,0,1.7,0,.56.56,0,0,1-.2.75,1.08,1.08,0,0,0-.5.75.32.32,0,0,0,0,.35.68.68,0,0,1,.1.35,6,6,0,0,1,0,2.15,3.24,3.24,0,0,0,.1,1.85,1.56,1.56,0,0,0-.2.5,2.88,2.88,0,0,1-.2.6,3,3,0,0,1,.4.55,1,1,0,0,1,0,.85,25.13,25.13,0,0,1,.55,3.35,8.38,8.38,0,0,0,.85,3.05.59.59,0,0,0,.2-.4.85.85,0,0,1,.1-.4,2.13,2.13,0,0,1,.35,1.7c-.1.73-.19,1.47-.25,2.2s-.25,1.55-.35,2.25a6.49,6.49,0,0,0,0,2.15.78.78,0,0,0-.3.7,1,1,0,0,1-.2.7,2.13,2.13,0,0,1-.1,1.7c.13.67.23,1.33.3,2a4.8,4.8,0,0,1-.1,1.7,14.06,14.06,0,0,1-.6-3.65,15.57,15.57,0,0,1,.2-3.65.23.23,0,0,0-.15-.25c-.1,0-.12-.12-.05-.25s.2,0,.2-.1a2.22,2.22,0,0,1,.1-1.2,8.45,8.45,0,0,1-.55-2.85,10.2,10.2,0,0,0-.45-2.75,6,6,0,0,0,.1-1.85c-.07-.63-.17-1.27-.3-1.9s-.29-1.27-.45-1.9a12,12,0,0,1-.35-1.75.23.23,0,0,0-.25,0,.22.22,0,0,1-.25,0,1.9,1.9,0,0,0-.6-1,6,6,0,0,0-.6-2.35c-.34-.63-.67-1.25-1-1.85a3.3,3.3,0,0,0-.5-1.85,4.89,4.89,0,0,1-.7-1.85.12.12,0,0,0-.2,0q-.11.11-.3,0a4.85,4.85,0,0,1-.1-1,1.46,1.46,0,0,1,.2-.8.54.54,0,0,1-.25-.2.65.65,0,0,0-.15-.2,2.74,2.74,0,0,0,.2-1,.9.9,0,0,1,.3-.8,3,3,0,0,1,.2-1.5,3.89,3.89,0,0,0,.25-1.15q0-.65.45-.75c-.13.6-.3,1.23-.5,1.9a2.12,2.12,0,0,0,.2,1.8,8,8,0,0,1,1.3-2,4.26,4.26,0,0,0,1-2.2,7,7,0,0,0,1.3-1.8l1-2.05a19.79,19.79,0,0,1,1-1.95A6.64,6.64,0,0,1,166,82.3a16.65,16.65,0,0,0,0-2.45,7.29,7.29,0,0,0-.6-2.45,3.3,3.3,0,0,0-2.6,1l-1.8,2a5.44,5.44,0,0,0-3.1,2.3l-.6.3a6.35,6.35,0,0,0-.8,2.4,5.42,5.42,0,0,1-.9,2.4.66.66,0,0,0,.1-.6,1.57,1.57,0,0,1-.1-.5,4.94,4.94,0,0,1,.5-1.6,2.26,2.26,0,0,0,.2-1.6,18.82,18.82,0,0,1,3.9-4.1.09.09,0,0,0-.1-.1c-.07,0-.1-.07-.1-.2a3.66,3.66,0,0,0,1.7-1.1,1,1,0,0,1,.5-.8,2,2,0,0,0,.7-.6.78.78,0,0,0-.85.1,1.42,1.42,0,0,1-.95.3,5.7,5.7,0,0,0,1.75-.85,5.59,5.59,0,0,1,1.75-.85c0-.13,0-.2.1-.2a.33.33,0,0,0,.3-.2,7.5,7.5,0,0,0-.7-2.35,2.87,2.87,0,0,0-1.6-1.35,1.1,1.1,0,0,1-.3-.5,1,1,0,0,0-.4-.5c.2-.2.26-.35.2-.45a4.35,4.35,0,0,1-.3-.55.78.78,0,0,1,.3,0,.71.71,0,0,0,.3,0,.58.58,0,0,0,0-.45c-.07-.17-.14-.32-.2-.45.13,0,.18,0,.15.1s0,.1.15.1a8.38,8.38,0,0,0,.85-1,2.43,2.43,0,0,0,.35-1.4A.25.25,0,0,0,164,66c0-.13.15-.17.35-.1a5.87,5.87,0,0,1,.65-1.05,3.52,3.52,0,0,0,.55-1.15,3,3,0,0,0,1.25-2.4,6.34,6.34,0,0,0-.45-3.1,3.18,3.18,0,0,0-.5-.85,3.38,3.38,0,0,1-.5-.75c-.14-.33-.25-.65-.35-1s-.22-.62-.35-.95q-.51-1-.9-1.8a10.12,10.12,0,0,1-.7-1.9.61.61,0,0,0-.2-.25.49.49,0,0,1-.2-.25.17.17,0,0,1,.05-.15.21.21,0,0,0,0-.15,1.83,1.83,0,0,0-.5-.5.61.61,0,0,1-.2-.7.92.92,0,0,1,.6.55.88.88,0,0,0,.6.55,11.46,11.46,0,0,0-.65-2.2,4.81,4.81,0,0,0-1.25-1.8,4.55,4.55,0,0,0-1.1-1.65,6.91,6.91,0,0,1-1.2-1.45,3.64,3.64,0,0,0-.55-1.5l-.95-1.5c-.33-.47-.62-.88-.85-1.25a5.27,5.27,0,0,1-.55-1.15,1.48,1.48,0,0,0-1.1-.9,11.45,11.45,0,0,1,.45-3.1c.3-1.07.55-2.1.75-3.1a.21.21,0,0,0,.15-.05.42.42,0,0,1,.25-.05,29,29,0,0,0,.5-4.85c.07-2,.1-3.78.1-5.45a.58.58,0,0,1,.3.5v.5a9.93,9.93,0,0,1,.1,2.4,14.85,14.85,0,0,0,0,2.5l.2-.4a6.46,6.46,0,0,1-.15,2.15,15.3,15.3,0,0,0-.35,2.15c-.07.93-.15,2.05-.25,3.35a18,18,0,0,0,.05,3.55,2.08,2.08,0,0,0,.05,1.35,1.87,1.87,0,0,0,.75,1,.27.27,0,0,0,.3-.3c.2,0,.25.07.15.2a.66.66,0,0,0-.15.4,2.8,2.8,0,0,0,.6,1.15,8.12,8.12,0,0,0,.9.85.18.18,0,0,0,.2-.2.18.18,0,0,1,.2-.2,1.54,1.54,0,0,0-.2.7,9.64,9.64,0,0,0,1.15,1.5,11.05,11.05,0,0,1,1.15,1.5,1.24,1.24,0,0,1,.9.4,8.34,8.34,0,0,1,.7.8.44.44,0,0,1-.4-.15,2.7,2.7,0,0,0-.3-.35,2.22,2.22,0,0,0,.9,1.4,4.7,4.7,0,0,1,1.2,1.3,3.58,3.58,0,0,0-.4-.75,3.18,3.18,0,0,1-.4-.65,6.19,6.19,0,0,1,.7.85,5.74,5.74,0,0,1,.5,1,3.42,3.42,0,0,1,1.9,2.8.59.59,0,0,0,.35.4q.24.11.15.6c-.07,0-.09,0-.05-.15s0-.15-.15-.15a1,1,0,0,0,.2,1c.13,0,.15,0,0-.15a.27.27,0,0,1,0-.35,6.25,6.25,0,0,1,.55,1.9,10.12,10.12,0,0,1,.05,2.2c.06.07,0,.1-.3.1.13,1.33.31,2.67.55,4a8.11,8.11,0,0,0,1.35,3.4h.2c0-.07.06-.1.2-.1a1.63,1.63,0,0,0,.45.6.73.73,0,0,1,.25.6.28.28,0,0,0-.1.2.32.32,0,0,1-.1.2.47.47,0,0,1-.35-.15.49.49,0,0,0-.35-.15.9.9,0,0,0-.6.5c-.07.2-.17.47-.3.8A4.11,4.11,0,0,0,168,68.2c-.37.67-.79,1.33-1.25,2a19.8,19.8,0,0,1,1,2.3,10,10,0,0,0,.95,2.1,1.08,1.08,0,0,0,.9-.2,1.06,1.06,0,0,1,.9-.2c.13,0,.21,0,.25.1s.11.1.25.1a9.3,9.3,0,0,0,1.8.25c.66,0,1.2,0,1.6,0a1.12,1.12,0,0,0,1-.35c.16-.23.35-.52.55-.85a1.1,1.1,0,0,1,.6-.2.27.27,0,0,0,0-.3.4.4,0,0,1-.1-.3,6.09,6.09,0,0,0,1.15-1.65,10.14,10.14,0,0,1,1.05-1.75c.06.13,0,.2-.1.2s-.14.07,0,.2.3.07.3,0a.4.4,0,0,1,.1-.3c.93-.33,1.88-.65,2.85-1s1.91-.62,2.85-1l2.75-1a4.57,4.57,0,0,0,2.15-1.6q-.7-1.2-1.35-2.4a21.74,21.74,0,0,0-1.45-2.3c-.14-.07-.24-.05-.3,0s-.17.08-.3,0a1.09,1.09,0,0,1,.3-.8,9,9,0,0,0-1.1-2.45,5.77,5.77,0,0,1-.9-2.45q.39-.11.45.15a.79.79,0,0,0,.25.45,1.49,1.49,0,0,1,.2-1.4,2.08,2.08,0,0,0,.5-1.2,10.22,10.22,0,0,0,1.6-1.55c.46-.57.93-1.15,1.4-1.75a30.66,30.66,0,0,0,1.85-5q.75-2.7,1.65-5.3l.1.1C192.59,38.47,192.84,37.88,193.14,37.25ZM155.59,35.8a5.23,5.23,0,0,0,.35-1,2.45,2.45,0,0,0,.05-1.1c-.07.33-.15.67-.25,1A3.8,3.8,0,0,0,155.59,35.8Zm.2.6c0,.4.07.57.2.5C156,36.63,155.92,36.47,155.79,36.4Zm6.9,33.8c-.07.07-.07.15,0,.25a.32.32,0,0,0,.3.15.69.69,0,0,1-.1-.3C162.89,70.17,162.82,70.13,162.69,70.2Zm2.3,5.4q-.51-.41-1.05.15a10,10,0,0,1-.95.85,3.13,3.13,0,0,1,1.15-.4A1,1,0,0,0,165,75.6Zm-.2-8.6a.19.19,0,0,0,.1.3l.2-.4A.2.2,0,0,0,164.79,67Zm2.6,24.8a1.8,1.8,0,0,1-.1-.6.69.69,0,0,0-.2-.5,2.09,2.09,0,0,1,.1.6A.65.65,0,0,0,167.39,91.8Zm13.3-21.5a1.75,1.75,0,0,0-.4,0,.23.23,0,0,0-.2.25A2.21,2.21,0,0,0,180.69,70.3Zm1.8,7.1a3.49,3.49,0,0,1,.7.35.37.37,0,0,0,.6-.15,5.33,5.33,0,0,0-.65-.25C182.84,77.25,182.62,77.27,182.49,77.4Zm9.6-15.5a1,1,0,0,0-.5-.6,1,1,0,0,0,.2.3A4.12,4.12,0,0,0,192.09,61.9Zm.3-22.9a.21.21,0,0,1,0,.15.17.17,0,0,0-.05.15.09.09,0,0,0,.1-.1Zm3.5,55.8c0-.47,0-.7-.1-.7C195.79,94.57,195.82,94.8,195.89,94.8Zm2.5-21.4c.33.07.61.13.85.2a1.33,1.33,0,0,0,.85-.1.91.91,0,0,0-.9-.4A.9.9,0,0,0,198.39,73.4Zm1.6-53c0-.2-.07-.3-.2-.3s-.17.25-.1.35S199.85,20.53,200,20.4Zm1,88.9c.13.53.4.8.8.8a3.13,3.13,0,0,1-.35-.4A1.82,1.82,0,0,0,201,109.3Zm1.5-34.7a.45.45,0,0,0,.35-.2.28.28,0,0,0-.05-.4.34.34,0,0,1-.15.3A.34.34,0,0,0,202.49,74.6Zm2.7-63.4a.09.09,0,0,0-.1-.1,5.78,5.78,0,0,1-.9,1.05,3.12,3.12,0,0,0-.8,1.15,2.22,2.22,0,0,0,1.05-.9Q204.78,11.8,205.19,11.2Zm9.9,120.3c.06-.13,0-.25-.15-.35s-.29-.12-.35-.05A2.1,2.1,0,0,0,215.09,131.5Zm4,21.1a1.47,1.47,0,0,0-.7-1.5,1.17,1.17,0,0,1,.2.8C218.59,152.3,218.75,152.53,219.09,152.6Z"/><path class="cls-1" d="M281.29,43.9q-5.21.49-5.5.8a7.64,7.64,0,0,0-2,.3,18.06,18.06,0,0,1-2.4.2,1.35,1.35,0,0,0-1.3.8c-.34-.07-.55,0-.65,0a1.18,1.18,0,0,1-.45.25,4.53,4.53,0,0,1-.55,1.1,1,1,0,0,0-.15,1,1.7,1.7,0,0,0-.3.35,2.7,2.7,0,0,1-.3.35,6.27,6.27,0,0,1-1.35,2.15,4.4,4.4,0,0,0-1.15,2.25,1.5,1.5,0,0,0-1,.85,12.1,12.1,0,0,1-.6,1.15,2.13,2.13,0,0,0-1.1,1.3,2.17,2.17,0,0,1-1.1,1.3c-.14.2-.25.37-.35.5a1.21,1.21,0,0,0-.15.7,8.73,8.73,0,0,1-1.4,1.3,2.48,2.48,0,0,0-1,1.4,1.08,1.08,0,0,0-.65.55,1.13,1.13,0,0,1-.55.55,1,1,0,0,0-.05.6,1,1,0,0,1-.15.7.86.86,0,0,1,.35.65c0,.3-.12.48-.45.55q-.51-.19-.45-.6t-.45-.6a7.86,7.86,0,0,0-.95,1.15,8.55,8.55,0,0,1-.95,1.15c-.14.07-.22,0-.25,0s-.12-.12-.25-.05a.18.18,0,0,0-.2.2c0,.07-.07.1-.2.1a6.23,6.23,0,0,0-.1,2c.06.83.13,1.68.2,2.55a9.47,9.47,0,0,1,.1,1.4,2.4,2.4,0,0,0,.2,1.1,1.51,1.51,0,0,0,.6.75.76.76,0,0,1,.4.65,1.73,1.73,0,0,1-.6.5,1.11,1.11,0,0,0,1,.7,1,1,0,0,0,1.15-.5,1,1,0,0,0,.8-.4l.6-.8a1.57,1.57,0,0,1,.65-.55c.23-.1.55,0,1,.35a2.31,2.31,0,0,1-.65,1.1c-.3.27-.62.57-.95.9-.07.13-.07.22,0,.25s.1.12.1.25a3.59,3.59,0,0,1-.35.3.75.75,0,0,0-.25.3.84.84,0,0,0-1.1.5,3.18,3.18,0,0,0-.3,1.2,4.43,4.43,0,0,0-1.15,1.2,17.25,17.25,0,0,0-.95,1.5,10.44,10.44,0,0,0-1.05,2.4c-.24.8-.52,1.67-.85,2.6h-.4a22.64,22.64,0,0,1-.95,2.35c-.37.77-.72,1.55-1.05,2.35a11.83,11.83,0,0,0-.75,2.5,10.66,10.66,0,0,0-.15,2.8,20.62,20.62,0,0,0,.5,2.4,4.15,4.15,0,0,0,1.1,1.9,20.25,20.25,0,0,0,1.85,1.65,12.42,12.42,0,0,1,1.85,1.85h.6a1.58,1.58,0,0,1,0,1.35,5.7,5.7,0,0,0-.5,1.35,6.41,6.41,0,0,0-.1,1.1,6.15,6.15,0,0,1-.1,1.1,2.38,2.38,0,0,1-.2.95,3.89,3.89,0,0,0-.3,1,1.77,1.77,0,0,0-.05.75,2.17,2.17,0,0,1,0,.75c-.14.93-.29,1.87-.45,2.8s-.32,1.83-.45,2.7a8.79,8.79,0,0,0-.1,1.3,2.09,2.09,0,0,0,.3,1.1v.9a1.88,1.88,0,0,0-.45.8A1.75,1.75,0,0,0,252,124c.13,0,.2-.1.2-.3v-.5a1.37,1.37,0,0,1,.05-.4c0-.13.15-.2.35-.2a9.2,9.2,0,0,0,.2,3.9,15.93,15.93,0,0,1,.6,3.6,8.7,8.7,0,0,1-.55-2.15,16.59,16.59,0,0,0-.45-2.25h-.3c-.14-.6-.27-1.18-.4-1.75a2,2,0,0,1,.3-1.65,1.72,1.72,0,0,0-.2-.3l-.3-.3a32.5,32.5,0,0,1,.45-5.45c.3-1.77.55-3.45.75-5,0-.13-.07-.18-.2-.15s-.2,0-.2-.15a3,3,0,0,1,.25-1.2,1,1,0,0,0-.15-1.1,2.09,2.09,0,0,0,.1-.6.39.39,0,0,0-.3-.4V107q-.81-1.09-1.5-2.1a6.37,6.37,0,0,0-1.8-1.7,2.31,2.31,0,0,0-.65-1.1c-.3-.27-.59-.53-.85-.8-.74,1.73-1.45,3.5-2.15,5.3a19.47,19.47,0,0,0-1.25,5.9c.13-.27.25-.53.35-.8a1.92,1.92,0,0,1,.45-.7,4,4,0,0,1-.55,1.55,5.42,5.42,0,0,0-.65,1.65,11.4,11.4,0,0,0-.15,2.5,15.66,15.66,0,0,0,.25,2.4,15.71,15.71,0,0,0,.2,5q.5,2.59.9,4.8c.4,2.13.76,4.33,1.1,6.6a19.54,19.54,0,0,0,1.8,6,.71.71,0,0,0-.15.9,5,5,0,0,1,.35.9,2.68,2.68,0,0,1,0,.45,1.93,1.93,0,0,0-.05.45,3.1,3.1,0,0,0,.3,1.4,7.35,7.35,0,0,1,.5,1.4,3,3,0,0,0,.85,1.55,3.22,3.22,0,0,1,.85,1.35,1.77,1.77,0,0,0,.3,1.3,3.23,3.23,0,0,1,.5,1.3,10,10,0,0,1,.2,1.9,3.09,3.09,0,0,0,.5,1.7,2,2,0,0,0-.3.65,1.31,1.31,0,0,1-.3.55,16.13,16.13,0,0,1,.85,3.45,4.9,4.9,0,0,0,1.35,2.95,3.08,3.08,0,0,0,.45,1.35,5.09,5.09,0,0,1,.55,1.25,1.87,1.87,0,0,0,.5.3.09.09,0,0,1-.1.1.26.26,0,0,1-.2-.1,4.23,4.23,0,0,0,.6,2.4c-.07.8-.17,1.67-.3,2.6a6,6,0,0,0,.1,2.5c.13,0,.16-.08.1-.25s0-.22.2-.15a5,5,0,0,1,0,2.85,12.48,12.48,0,0,0-.55,2.95,2.54,2.54,0,0,0,.05.5,4,4,0,0,1,0,.6,2.09,2.09,0,0,1-.1.6,1.8,1.8,0,0,0-.1.6c-.07.73-.1,1.5-.1,2.3a10,10,0,0,1-.2,2.1.83.83,0,0,0-.7.25,1.19,1.19,0,0,1-.7.35.48.48,0,0,1-.25-.4,1,1,0,0,0-.25-.5c-.27.07-.45,0-.55-.05a.61.61,0,0,0-.45-.15,9.69,9.69,0,0,1-1.7,1.35,4.82,4.82,0,0,0-1.5,1.45c-.14.2-.27.27-.4.2a5.71,5.71,0,0,1-1.3,1.9,1.75,1.75,0,0,0-.4.05.42.42,0,0,1-.4-.15,3.1,3.1,0,0,0-.8,1.4,1,1,0,0,0,.5.4q.3.1.3.6c0,.27-.14.37-.4.3a5.75,5.75,0,0,0,.6,2.2c.33.67.66,1.3,1,1.9a6.25,6.25,0,0,0,.6.85,3.18,3.18,0,0,1,.5.85,7.7,7.7,0,0,1,.55,1.85,4.52,4.52,0,0,0,.65,1.75,1.72,1.72,0,0,0,.05,1.25c.16.37.31.75.45,1.15a.61.61,0,0,0,0,.8.88.88,0,0,1,.1.9.46.46,0,0,1-.35.05.45.45,0,0,0-.35.05c0-.33-.07-.53-.2-.6a.73.73,0,0,0,.2,1.1c0,.2,0,1,.1,2.55s.15,3.12.25,4.85.18,3.33.25,4.8.1,2.3.1,2.5c0-.2-.07-1.07-.2-2.6s-.29-3.17-.45-4.9-.32-3.37-.45-4.9-.2-2.4-.2-2.6a2.4,2.4,0,0,0,0-.8,5,5,0,0,0-.15-.7,12.87,12.87,0,0,0-.3-1.55c-.14-.5-.27-1-.4-1.55a10.12,10.12,0,0,0-.9-2.55c-.4-.77-.77-1.48-1.1-2.15a.61.61,0,0,0-.2-.25.55.55,0,0,1-.2-.15,2.35,2.35,0,0,0-.3-.7c-.14-.2-.27-.4-.4-.6a2.11,2.11,0,0,1-.3-.6.93.93,0,0,0-.5-.5,3.39,3.39,0,0,0,.15,1.55,3.51,3.51,0,0,1,.05,1.75.45.45,0,0,1-.2-.55,1.58,1.58,0,0,0,0-.75.32.32,0,0,0-.1-.2.28.28,0,0,1-.1-.2,3.92,3.92,0,0,1-.15-1.45,1.29,1.29,0,0,0-.45-1.15v-1.1a2,2,0,0,0-.2-.9c-.14.07-.15.12,0,.15s.11.12,0,.25a.92.92,0,0,1-.4-.5,1,1,0,0,0-.4-.5,1.91,1.91,0,0,0-.4-1.7,1.41,1.41,0,0,1-.3-1.5c.2-.07.31,0,.35.1a.23.23,0,0,0,.25.2,3.66,3.66,0,0,1,.9-.3,1.08,1.08,0,0,0,.7-.4,4.53,4.53,0,0,0-.05-.75.68.68,0,0,1,.15-.55,3.38,3.38,0,0,1,.1-2.45,3.13,3.13,0,0,1,1.5-1.65,6.66,6.66,0,0,1-.2.8v-.3a1.9,1.9,0,0,0-1.25,2,8.41,8.41,0,0,0,.45,2.65,1.19,1.19,0,0,0,.85-.35,2.78,2.78,0,0,1,.75-.55c.13-.13.15-.23.05-.3s-.12-.1-.05-.1a3.89,3.89,0,0,1,1.6-1.4,3.34,3.34,0,0,1,1.3-2.2v-.2c.06,0,.06-.07,0-.2a1.65,1.65,0,0,0,.7-.95,1.57,1.57,0,0,1,.7-.95,18.55,18.55,0,0,1-1.4,2.65,17.59,17.59,0,0,0-1.4,2.65c.13.13.3.13.5,0a5.45,5.45,0,0,1,.5-.3.84.84,0,0,0,.1-.5,4.58,4.58,0,0,0,1.5-1.75,11.36,11.36,0,0,0,.8-2.45,1.15,1.15,0,0,0,.9-1.1c.06-.6.1-1.17.1-1.7q.09-.3-.3-.3c.06-.2.13-.32.2-.35s.06-.18,0-.45c.26,0,.33.13.2.4q.19-.1.15-.45c0-.23-.19-.32-.45-.25a1,1,0,0,0,.1-.4.32.32,0,0,1,.2-.3c.06-.13,0-.2-.1-.2s-.07-.07,0-.2,0-.4.3-.4a10.57,10.57,0,0,1,0-3.55,10.1,10.1,0,0,0-.2-3.95c0-.2.13-.3.4-.3a3.42,3.42,0,0,0-.7-1.65,4.1,4.1,0,0,1-.8-1.35c-.27.07-.42,0-.45-.1s-.19-.23-.45-.3q-.21-1.39-.3-3a14.68,14.68,0,0,0-.5-3c-.2-.67-.42-1.33-.65-2a6.17,6.17,0,0,1-.35-2.1,3.46,3.46,0,0,1,.15-1,3.46,3.46,0,0,0,.15-1,5.66,5.66,0,0,0-.7-1.9,10.2,10.2,0,0,1-.9-2.2v-.8a7.22,7.22,0,0,0-1.1-2.1,30.61,30.61,0,0,0,.75,4.6c.36,1.53.71,3.07,1,4.6a1.6,1.6,0,0,1-.6-1.1,5.67,5.67,0,0,0-.4-1.4c0-.2,0-.25.1-.15s.13.15.2.15a.47.47,0,0,0-.25-.25.23.23,0,0,1-.15-.25c-.07-.13-.07-.22,0-.25s.1-.12.1-.25a5.59,5.59,0,0,1-.6-1.8c-.14-.73-.24-1.4-.3-2a1.56,1.56,0,0,1-.2-.5,11.06,11.06,0,0,0-.3-1.5,1.65,1.65,0,0,0-.7-1,47.66,47.66,0,0,1-.7-6,25.8,25.8,0,0,0-1-5.9,3.61,3.61,0,0,0-.1-1.85,11.17,11.17,0,0,1-.4-2.15q0-.19-.15,0c-.1.13-.19.13-.25,0a11.55,11.55,0,0,0-.75-3c-.37-.87-.75-1.72-1.15-2.55s-.77-1.7-1.1-2.6a12.77,12.77,0,0,1-.7-3h.6a.66.66,0,0,0-.5-.5c-.4.07-.67.43-.8,1.1a1,1,0,0,0-.65.7,1.06,1.06,0,0,1-.65.7c-.14-.13-.12-.28,0-.45s.21-.32.15-.45a28.9,28.9,0,0,1-2.4,2.5,6.71,6.71,0,0,0-1.8,3.1c.33,0,.51,0,.55-.15s.18-.15.45-.15a3.49,3.49,0,0,1-.85,1,1.29,1.29,0,0,0-.35,1.25,3.05,3.05,0,0,0,.4,1.1q.39.8.9,1.65t.9,1.65a7.24,7.24,0,0,1,.5,1.2c-.2-.27-.5-.7-.9-1.3a20,20,0,0,1-1.15-2,16.2,16.2,0,0,1-.9-2,2,2,0,0,1-.15-1.45,1.44,1.44,0,0,1,.3-1.6,2.44,2.44,0,0,0,.8-1.3,1.09,1.09,0,0,1-.4,0,1.13,1.13,0,0,0-.4,0,1.15,1.15,0,0,1,.1-.85,4.34,4.34,0,0,1,.5-.7c.2-.23.38-.47.55-.7a1.47,1.47,0,0,0,.25-.85.82.82,0,0,1,.3-.45.65.65,0,0,0,.2-.55,2.87,2.87,0,0,0,1.25-.85,3.68,3.68,0,0,1,1.25-1,.4.4,0,0,0-.25-.4,2.34,2.34,0,0,0-.55-.15,3.29,3.29,0,0,1-.6-.15.39.39,0,0,1-.3-.4,1.3,1.3,0,0,0-.6.3,3.64,3.64,0,0,1-.5.4.77.77,0,0,1-.3-1h.7a1.85,1.85,0,0,0,1.25-.65,7.44,7.44,0,0,1,1.05-1,16.41,16.41,0,0,1,1.65-.9,2.65,2.65,0,0,0,1.25-1.2.6.6,0,0,0,.65-.2c.16-.2.31-.23.45-.1-.14-.13-.14-.2,0-.2a.88.88,0,0,0,.4-.1,8.88,8.88,0,0,0,1.1-2.2c.26-.8.56-1.63.9-2.5a.21.21,0,0,1-.15,0,.25.25,0,0,0-.15,0,1.56,1.56,0,0,1,.25-.5.8.8,0,0,0,.15-.5q.19-.1.3,0a.38.38,0,0,0,.3.1,1,1,0,0,0,.7-.7c.13-.4.3-.87.5-1.4a8.73,8.73,0,0,1,.6-1.65,1,1,0,0,0-.4-1.35,2.09,2.09,0,0,0,.1-.6.78.78,0,0,1,.2-.6,3.45,3.45,0,0,1,.7-2.2,5.68,5.68,0,0,0,1-2.1,2,2,0,0,0,.15-1,2.8,2.8,0,0,1,.05-1,13.91,13.91,0,0,1,.5-1.45,2.49,2.49,0,0,0,.1-1.55,4.79,4.79,0,0,1,.15-2.3,13.1,13.1,0,0,0,.45-2.7,10.27,10.27,0,0,1,.4-2.1,3.08,3.08,0,0,0,0-1.9,6.17,6.17,0,0,0,.25-2,12.68,12.68,0,0,1,.05-2,11.17,11.17,0,0,1,.4-2.15c.2-.7.36-1.35.5-1.95-.2.13-.42.28-.65.45a.85.85,0,0,1-.85.05,3.53,3.53,0,0,1-1.6,1.9,4.16,4.16,0,0,0-1.7,1.7c-.8.13-1.24,0-1.3-.5a8.43,8.43,0,0,0-3.85,1.25,16.16,16.16,0,0,1-3.65,1.65c0-.13,0-.18.1-.15s.1,0,.1,0a3,3,0,0,0-1.35.7,7.82,7.82,0,0,1-1.25.9,13.17,13.17,0,0,0-1.6.15c-.74.1-1.49.23-2.25.4s-1.5.32-2.2.45-1.19.23-1.45.3a.62.62,0,0,1,0,.4.39.39,0,0,0,.15.4.32.32,0,0,0,.4.1.2.2,0,0,1,.3.1,4.59,4.59,0,0,1-2.1,2.55,7.15,7.15,0,0,0-2.4,2.15.65.65,0,0,0-.2.5.69.69,0,0,1-.2.5,9.72,9.72,0,0,1-1,1,2,2,0,0,0-.65,1.3,4,4,0,0,0-1.2,1.05c-.34.43-.65.87-.95,1.3s-.62.85-1,1.25a4.13,4.13,0,0,1-1.3,1,13.85,13.85,0,0,0-1.4,1.85,16.57,16.57,0,0,0-1.1,2c-.34.2-.54.27-.6.2a5.68,5.68,0,0,0-.55.9,6.53,6.53,0,0,1-.55.9c-.34,0-.55.1-.65.3s-.09.3.05.3a3,3,0,0,1-.45.35,2.25,2.25,0,0,0-.45.35,9.31,9.31,0,0,0,.15,2.65,19.89,19.89,0,0,1,.35,2.55.4.4,0,0,0,.2.4.33.33,0,0,1,.2.3.77.77,0,0,0,.05,1,.71.71,0,0,1-.05,1c.73,1.2,1.45,2.4,2.15,3.6a26.68,26.68,0,0,0,2.35,3.4,1.86,1.86,0,0,0-.3,1.8,13.57,13.57,0,0,1,.4,2c-.27,0-.39-.12-.35-.35a.63.63,0,0,0-.15-.55c-.14,0-.19.08-.15.25s0,.22-.15.15a14.53,14.53,0,0,0-.85-2.9,12.18,12.18,0,0,0-1.35-2.4.23.23,0,0,0-.15.3,1.83,1.83,0,0,1,.05.4c-.47.07-.7.4-.7,1a.5.5,0,0,1,0-.65q.24-.25.45-.45a2.48,2.48,0,0,0-1-2.3,9.23,9.23,0,0,1-1.8-1.4.27.27,0,0,0-.3.3c-.13,0-.27-.13-.4-.4a4.63,4.63,0,0,0-2,2.8h-.6a2.13,2.13,0,0,1-.6.85c-.27.23-.53.45-.8.65a3.5,3.5,0,0,0,.25,2.2,7.68,7.68,0,0,0,1,1.45c.4.43.78.88,1.15,1.35a3.88,3.88,0,0,1,.75,1.7,1.29,1.29,0,0,0,.2.3,1.29,1.29,0,0,1,.2.3.69.69,0,0,0,.3.1.28.28,0,0,1,.2.1,24.92,24.92,0,0,0,1.75,3.15,32.26,32.26,0,0,1,1.75,3,.45.45,0,0,0,.4-.15.44.44,0,0,1,.4-.15,1.79,1.79,0,0,1-.2,1.15,6.9,6.9,0,0,0-.5,1.15,3.26,3.26,0,0,0,.3.8,1.43,1.43,0,0,1,.1.9c-.27-.07-.39-.17-.35-.3s-.05-.2-.25-.2a7,7,0,0,0-.15,2.05,3,3,0,0,0,.55,1.85q-.21,3.19-.45,6.2a22.13,22.13,0,0,0,.35,6.1,5.85,5.85,0,0,1-.6-2.25c-.07-.83-.1-1.65-.1-2.45a.86.86,0,0,0-.3-.6,5.38,5.38,0,0,1,0-1.5,4.55,4.55,0,0,0-.1-1.6l-.3-.3a2.57,2.57,0,0,1,.1-.75,1.19,1.19,0,0,0,0-.65,1.42,1.42,0,0,0-.1-.45,1.19,1.19,0,0,1-.1-.45,2.57,2.57,0,0,1,.1-1.25,2.38,2.38,0,0,0,0-1.35,13.32,13.32,0,0,0-.55-2.05,11,11,0,0,1-.55-2.15c-.14-.6-.29-1.18-.45-1.75s-.32-1.15-.45-1.75c-.13-.8-.27-1.47-.4-2a35.94,35.94,0,0,0-3.05-4.45,35.94,35.94,0,0,1-3.05-4.45c-.27.07-.45,0-.55,0l-.35-.35a1.39,1.39,0,0,0-1.2.55,3.9,3.9,0,0,1-.8.85,1,1,0,0,1,.35-.6,1.16,1.16,0,0,0,.35-.7,1.1,1.1,0,0,0,.35-.3,1.82,1.82,0,0,1,.45-.4,3.08,3.08,0,0,1,1.35-1.65,4.2,4.2,0,0,0,1.55-1.65.4.4,0,0,1,.3.1,1.29,1.29,0,0,0,.3.2.64.64,0,0,0,.4-.5,5.57,5.57,0,0,0,.15-.85,4.23,4.23,0,0,1,.15-.8,1,1,0,0,1,.4-.55c-.27-.07-.33-.27-.2-.6.13,0,.17,0,.1.15s-.07.18,0,.25.32-.08.35-.25.15-.22.35-.15a1.21,1.21,0,0,1,.15-1.55,2.13,2.13,0,0,0,.45-1.85c-.13-.13-.2-.13-.2,0s-.07.17-.2.1a.33.33,0,0,0,.1-.4.85.85,0,0,1-.1-.4l.2.2a8.38,8.38,0,0,0-.2-2.55,8.52,8.52,0,0,0-.8-2.25,1.22,1.22,0,0,1,.4-.65.72.72,0,0,0,.2-.75c.13-.13.2-.13.2,0a.18.18,0,0,0,.2.2c.73-.53,1.5-1,2.3-1.5a28.05,28.05,0,0,1,2.5-1.3,1.62,1.62,0,0,0,.65-.6,1.5,1.5,0,0,1,.65-.6,2.36,2.36,0,0,1,.55-.85,1,1,0,0,0,.35-.65,2.63,2.63,0,0,0,.9-.6,1.39,1.39,0,0,0,.4-1,9.37,9.37,0,0,1,1.05-1.25,3.74,3.74,0,0,0,.85-1.45,2.93,2.93,0,0,0,.85-.8,8.86,8.86,0,0,0,.65-1.1h-.4q.3-.49.6-1a3.93,3.93,0,0,0,.4-1,2.72,2.72,0,0,0,1.4-2.2c-1.14.53-2.25,1.08-3.35,1.65s-2.22,1.12-3.35,1.65c-.07.13-.07.22,0,.25s.06.12,0,.25a1.38,1.38,0,0,1-.55.3l-.65.2q0-.1.15-.15c.1,0,.11-.12.05-.25a.82.82,0,0,0-.6.2.7.7,0,0,1-.5.2,7.36,7.36,0,0,0-.9,1c-.27.37-.57.75-.9,1.15-.14.27-.27.5-.4.7a6.23,6.23,0,0,0-.4.7,7.89,7.89,0,0,1-1.8,1.95,3.82,3.82,0,0,0-1.4,2.35c-.07.07-.23.1-.5.1a16.69,16.69,0,0,0-1.25,1.85A5.83,5.83,0,0,1,203,98.3a1.79,1.79,0,0,1,.25-.5c.1-.13.08-.3-.05-.5a1,1,0,0,0,.25-.35.47.47,0,0,1,.25-.25,9.73,9.73,0,0,1,1.2-2,10.84,10.84,0,0,0,1.2-1.9,2.25,2.25,0,0,1,.35-1l.55-.75c-.07-.13-.15-.15-.25,0a.27.27,0,0,1-.35,0,6.35,6.35,0,0,1,1.5-1.85,3.63,3.63,0,0,0,1.2-2,.49.49,0,0,0-.45-.15,3.53,3.53,0,0,0-.55.15,4.54,4.54,0,0,1,.5-.35l.5-.25a2.49,2.49,0,0,0,.9-2.4,6.46,6.46,0,0,1,1.85.25,3.17,3.17,0,0,0,1.85,0,3.92,3.92,0,0,0,.75-.5,2.81,2.81,0,0,1,.85-.5c.33-.13.66-.25,1-.35a1.1,1.1,0,0,0,.7-.55,1.37,1.37,0,0,0,.9-.1,3.92,3.92,0,0,0,.75-.5,3.38,3.38,0,0,1,.75-.5,1.08,1.08,0,0,1,.9,0,1.79,1.79,0,0,1,.6-.8,3.57,3.57,0,0,0,.7-.7,6,6,0,0,1-.15-1.85,12,12,0,0,0-.05-1.85,2.46,2.46,0,0,0-1.3.75c-.34.37-.8.38-1.4,0a2,2,0,0,0-1.15,1,2.16,2.16,0,0,1-1,1q-.21-.11-.15-.15s0-.08-.15-.15a2.35,2.35,0,0,1-.9,1.1.37.37,0,0,1,.1-.55.49.49,0,0,0,.1-.65,1.73,1.73,0,0,1,.8-1.15,1.77,1.77,0,0,0,.8-1.15,1.91,1.91,0,0,0,.85-.4,2.34,2.34,0,0,0,.55-.7.46.46,0,0,0-.6.05c-.2.17-.37.32-.5.45a1.08,1.08,0,0,0-1,.15,1.65,1.65,0,0,1-1.25.25.39.39,0,0,1,.4-.3c.4-.13.73-.23,1-.3a9.44,9.44,0,0,0,.9-.3c.33-.13.63-.27.9-.4s.56-.27.9-.4a27.6,27.6,0,0,1,2.7-2.4,6,6,0,0,0,2-3,.72.72,0,0,0,.3-.3c.06-.13.2-.17.4-.1s.36-.3.5-.7c.2.07.33,0,.4-.1a.31.31,0,0,1,.3-.2,3.69,3.69,0,0,1,1.3-.65c.66-.23,1.4-.47,2.2-.7s1.53-.47,2.2-.7a2.11,2.11,0,0,0,1.2-.75,3.94,3.94,0,0,0,1-1,7.36,7.36,0,0,1,.9-1,4.1,4.1,0,0,1,1-1.85,3.47,3.47,0,0,0,1-1.85,5.36,5.36,0,0,0,1.2-1.8,9.85,9.85,0,0,1,1-1.9,26.34,26.34,0,0,0,.9-2.9,29.51,29.51,0,0,0,.6-3.25,15,15,0,0,0,.05-3.2,6,6,0,0,0-1-2.75c0-.87.05-1.83.15-2.9a3.42,3.42,0,0,0-.45-2.4,1.71,1.71,0,0,0,.25-.6,2.29,2.29,0,0,1,.25-.7,9.73,9.73,0,0,0-4.4-4.1,1.75,1.75,0,0,0-.6.9q.19.2.6,0t.6,0a.87.87,0,0,1-.9.5.8.8,0,0,0-.8.4,1.06,1.06,0,0,0,.15.55.49.49,0,0,1-.05.55,2.57,2.57,0,0,1-1.25-.65,10.88,10.88,0,0,1-.85-1,1.82,1.82,0,0,0,1.1-.3,6.7,6.7,0,0,0-.05-.85q-.06-.34-.15-.75c-.2-.07-.32,0-.35.1s-.15.2-.35.2c0-.13,0-.2.1-.2a.29.29,0,0,0,.2-.1c.06-.2,0-.32-.1-.35s-.17-.15-.1-.35a.18.18,0,0,1,.2.2c0,.07.06.1.2.1a24.75,24.75,0,0,0-.4-3.5,5,5,0,0,0-1.4-2.6c.2-.07.31,0,.35.05s.11.15.25.15a27,27,0,0,0-5-10.4,6.86,6.86,0,0,1-.55-.85,2.48,2.48,0,0,0-.65-.75,8.23,8.23,0,0,0-1-.85,4,4,0,0,1-.9-.85c0-.27-.07-.37-.2-.3a1.84,1.84,0,0,0,.1-.7,3.08,3.08,0,0,0-.65-.65,5,5,0,0,1-.65-.55,1.1,1.1,0,0,1-1.2-.7,2.85,2.85,0,0,0-1.1-1.2q-.6-.4-3.95-2.5T207.79,0a18.66,18.66,0,0,1,2,1.15q1.69,1.05,3.75,2.25c1.36.8,2.65,1.58,3.85,2.35a19.43,19.43,0,0,1,2.1,1.45,1.85,1.85,0,0,0-.35-.7c-.17-.2-.32-.27-.45-.2a.78.78,0,0,1,.7-.7.24.24,0,0,1,.25.15.43.43,0,0,0,.25.25c.13,0,.13-.07,0-.2s-.14-.2,0-.2a1,1,0,0,1,.4.5,1.1,1.1,0,0,0,.3.5,1.3,1.3,0,0,1-.35-.25.41.41,0,0,0-.45,0,1.06,1.06,0,0,0,.15.55l.25.45a6,6,0,0,1,1.95,1.8,6,6,0,0,0,2,1.8c0,.27,0,.43.1.5a21.17,21.17,0,0,0,2.2,2.45,18.67,18.67,0,0,1,2.2,2.55.6.6,0,0,1,.35.1,2.72,2.72,0,0,0,.35.2q1,2,2.15,3.9t2.45,3.7c-.07.2,0,.32.05.35s.11.15.05.35a.5.5,0,0,0,.6.2.84.84,0,0,1-.25.3.34.34,0,0,0-.15.3,22.53,22.53,0,0,1,1.25,2.25,4.33,4.33,0,0,0,1.65,1.85,5,5,0,0,0,.4.7c.06.07.23.1.5.1a4.91,4.91,0,0,0,1.35,1.8,5.14,5.14,0,0,1,1.35,1.8.72.72,0,0,0,.3-.3.31.31,0,0,1,.3-.2.6.6,0,0,1,.25.2.65.65,0,0,0,.15.2,3.75,3.75,0,0,1,0,1.7,4.13,4.13,0,0,0-.1,1.6,2.46,2.46,0,0,0,.5,1.3,6.44,6.44,0,0,1,.7,1.1q.19,0,.15-.3t.15-.3a6.82,6.82,0,0,0,.3,2.6h.5q-.3.3,0,.3c.2-.07.25-.15.15-.25a.49.49,0,0,1-.15-.35.63.63,0,0,1,.2-.55c.13-.1.16-.28.1-.55a1.45,1.45,0,0,0,.6-1.3c0-.6.13-1,.4-1.1a2.68,2.68,0,0,1-.1-1.3,4.71,4.71,0,0,0,0-1.3,1,1,0,0,0-.1-.4.85.85,0,0,1-.1-.4,1.8,1.8,0,0,1,.1-.6,1,1,0,0,0,0-.6,5.36,5.36,0,0,0-.45-1.45A8,8,0,0,1,244,30.5h-.7a.65.65,0,0,0-.2.5c0,.13-.17.17-.5.1a5.62,5.62,0,0,1,.6-2.1,2.82,2.82,0,0,0,.1-2.2c0-.2.05-.32.15-.35a.23.23,0,0,0,.15-.25,2,2,0,0,1,.2-1.55,5.53,5.53,0,0,0,.6-1.45,1.82,1.82,0,0,0,.2-.8,3.13,3.13,0,0,1,.1-.8,6.66,6.66,0,0,1,.5-1,7.77,7.77,0,0,0,.5-1c.46-.87.93-1.37,1.4-1.5a1.32,1.32,0,0,1,0,1c-.14.27-.29.53-.45.8a9.32,9.32,0,0,0-.5.9,1.71,1.71,0,0,0-.15,1.1l-.2-.2a.19.19,0,0,0-.1.3l.2.4c-.07.13-.12.17-.15.1a.17.17,0,0,0-.15-.1,1.81,1.81,0,0,1,.15,1.25,6.46,6.46,0,0,0-.15,1.45c-.2,0-.25-.08-.15-.25s.05-.28-.15-.35a7.22,7.22,0,0,0-.95,3.3,5.79,5.79,0,0,0,.65,3.4,4,4,0,0,0,.7,2.45,5.08,5.08,0,0,1,.9,2.05c-.27.07-.4,0-.4-.1a.33.33,0,0,0-.2-.3,2.44,2.44,0,0,0,.15,1.35,2.33,2.33,0,0,1,.15,1.25,2.26,2.26,0,0,1-.15.8,2.26,2.26,0,0,0-.15.8,2.11,2.11,0,0,0,.1.7,1,1,0,0,1-.1.7,9.34,9.34,0,0,1-.4,1.45,14.63,14.63,0,0,0-.5,1.75c-.14.93-.22,1.62-.25,2a1.94,1.94,0,0,0,.75,1.45.34.34,0,0,0,0-.45.92.92,0,0,1-.15-.45c.06-.13.15-.12.25,0a.84.84,0,0,0,.35.35,20.4,20.4,0,0,0,1.8,3.85,39,39,0,0,0,2.3,3.45l.55.75a2.39,2.39,0,0,1,.35,1,9.19,9.19,0,0,1,.1,2.3,4.45,4.45,0,0,0,.4,2.3c.06.13.13.15.2,0s.13-.08.2,0a5.23,5.23,0,0,1,.35,1c.1.4.31.57.65.5a2.47,2.47,0,0,0,1.25-.5c.5-.33.91-.6,1.25-.8s.78-.63,1.15-.9.71-.53,1.05-.8c1.13-.93,2.15-1.75,3.05-2.45a23,23,0,0,0,2.65-2.45c1.06-1.67,2.1-3.33,3.1-5a57.51,57.51,0,0,0,2.8-5.3,2,2,0,0,1,.5.2,1,1,0,0,1,.5-.4h11Zm-79.9,71.2c.13.13.3.12.5,0s.2-.32,0-.45a.33.33,0,0,1-.3.2C201.39,114.8,201.32,114.9,201.39,115.1Zm2.6-2.3a.49.49,0,0,0-.35.15c-.1.1-.08.22.05.35a.23.23,0,0,1,.15-.25A.23.23,0,0,0,204,112.8Zm3.1-3.7a.78.78,0,0,1,.1-.85.54.54,0,0,0,0-.75c-.13.47-.3,1-.5,1.5A.57.57,0,0,0,207.09,109.1Zm.3-5.9a8.12,8.12,0,0,1,.05-.9.7.7,0,0,0-.15-.6h-.2c0,.27,0,.55,0,.85A1.06,1.06,0,0,0,207.39,103.2Zm-.3,4.1q.3.2.3-.3A.27.27,0,0,0,207.09,107.3Zm2.9,2.3a1.13,1.13,0,0,0,.35.85c.23.23.45.32.65.25a1.57,1.57,0,0,1-.5-.55A1.67,1.67,0,0,0,210,109.6Zm2.2,28.7q.3,0,.3-.6c0-.4-.07-.63-.2-.7A5.77,5.77,0,0,0,212.19,138.3Zm4.9-60.3c-.27-.07-.45,0-.55.1a4.17,4.17,0,0,1-.35.4.33.33,0,0,0,.5,0A3.55,3.55,0,0,1,217.09,78Zm-.6,15a1.2,1.2,0,0,0,.8-.75,2.48,2.48,0,0,1,.6-1A2.7,2.7,0,0,0,216.49,93Zm32.7-28.3a.83.83,0,0,0,.15-1,3,3,0,0,1-.35-1c-.14-.6-.25-1.13-.35-1.6a10.41,10.41,0,0,0-.45-1.5,11.74,11.74,0,0,0-.75-1.9,7.93,7.93,0,0,0-.95-1.5,2.84,2.84,0,0,1,.1.8.82.82,0,0,1-.2.6,7.63,7.63,0,0,0-.7-3.4,21.06,21.06,0,0,1-1.2-2.9c-.14-.07-.22,0-.25.1s-.12.13-.25,0c.13-.13.15-.25,0-.35a1.24,1.24,0,0,1-.25-.35c0-.13,0-.2.1-.2s.1-.07.1-.2a1.18,1.18,0,0,1-.2-.7c0-.27-.17-.43-.5-.5a15,15,0,0,0-.35,1.5,3.87,3.87,0,0,1-.55,1.4,4.44,4.44,0,0,1-.2,1.95c-.2.5-.44,1-.7,1.55a2.42,2.42,0,0,1,.35-1.35A1.7,1.7,0,0,0,242,52.9a5.57,5.57,0,0,0-.9,1.9l-.6,2.2a.21.21,0,0,0,.3,0c.06-.1.13-.08.2,0q-1,2.2-2,4.3a42.16,42.16,0,0,0-1.8,4.4,1,1,0,0,0,.2.3.45.45,0,0,1,.1.3,2.13,2.13,0,0,1-.85.6l-1.3.6a7.25,7.25,0,0,0-1.15.65,1,1,0,0,0-.5.85c0,.4-.07.53-.2.4s-.4-.13-.8,0a.39.39,0,0,0-.15.4c0,.13,0,.2-.15.2s-.2,0-.2-.1-.07-.1-.2-.1c-.54.33-1.25.73-2.15,1.2a9.11,9.11,0,0,0-2.25,1.6,1.57,1.57,0,0,1,.1-.5.71.71,0,0,0,0-.5,2.06,2.06,0,0,0-.3.5c-.14.27-.29.53-.45.8a7.56,7.56,0,0,1-.5.7c-.17.2-.32.27-.45.2a.34.34,0,0,1,.15-.3c.1-.07.11-.17.05-.3a2.14,2.14,0,0,0-1.2,1.45,1.76,1.76,0,0,0,.5,1.85.83.83,0,0,0-.05.5,1.83,1.83,0,0,1,.05.4c1.06-.47,2.33-1,3.8-1.5s3-1.07,4.55-1.6,3.08-1.07,4.55-1.6,2.73-1,3.8-1.5a1.11,1.11,0,0,1,1.1-.6,4.24,4.24,0,0,1,1.4-.6c.06-.2,0-.27-.15-.2s-.25,0-.25-.1a.69.69,0,0,1,.5-.2c0,.2.06.27.2.2a.26.26,0,0,1,.2-.1c.13,0,.16-.07.1-.2s0-.13-.15,0-.15.13-.15,0a.32.32,0,0,1,.5-.1,23.34,23.34,0,0,0,1.8-2.25,8.45,8.45,0,0,0,1.2-2.85h.1c0-.07,0-.1.1-.1s.31,0,.35.15A1.49,1.49,0,0,0,249.19,64.7Zm-16.3,55.5.4-.4a1.3,1.3,0,0,0,.3-.6A1,1,0,0,0,232.89,120.2Zm2-2.6c0-.07-.07-.1-.2-.1a4.38,4.38,0,0,1-.65.7,1.39,1.39,0,0,0-.45.9,1.51,1.51,0,0,0,.75-.6Zm-1-84.3a.84.84,0,0,0-.1-.5.4.4,0,0,0-.1.3A.18.18,0,0,0,233.89,33.3Zm1,80.4,1.45-.9a4.12,4.12,0,0,0,1.15-1.1,3.65,3.65,0,0,0-1.4.8A9.7,9.7,0,0,0,234.89,113.7Zm3.9-1.8c0-.07-.07-.1-.2-.1-.47.33-1,.67-1.45,1a4.2,4.2,0,0,0-1.25,1.3c.26.33.53.43.8.3a3,3,0,0,0,1.15-1.05A7.08,7.08,0,0,0,238.79,111.9Zm-2.3,5.5a.45.45,0,0,1,.1-.25c.06-.1,0-.15-.1-.15a.32.32,0,0,1-.1.2C236.32,117.27,236.35,117.33,236.49,117.4Zm3.4-7.7a.38.38,0,0,0-.3.1.4.4,0,0,1-.3.1c0,.13,0,.2.1.2s.1.07.1.2-.34.3-.6.5-.34.37-.2.5a2.25,2.25,0,0,0,1.2-1c-.2-.13-.27-.23-.2-.3A1.72,1.72,0,0,0,239.89,109.7Zm3.5,79c-.34-.27-.57-.12-.7.45s0,.92.3,1a1.46,1.46,0,0,0,.2-.8A1.18,1.18,0,0,1,243.39,188.7ZM244,43.4a.54.54,0,0,0,.1-.55,4.54,4.54,0,0,0-.2-.55,1.66,1.66,0,0,0-.1.7C243.79,43.27,243.85,43.4,244,43.4Zm.9,149.8c0-.13,0-.2-.1-.2a.26.26,0,0,1-.2-.1Q244.38,193.4,244.89,193.2Zm1.1-3.3c.26,0,.36-.13.3-.4h-.2c0,.13,0,.2-.1.2S245.92,189.77,246,189.9Zm3-34.4v-1.1a.9.9,0,0,0-.3-.8,3.31,3.31,0,0,0-.05,1.05A1.3,1.3,0,0,0,249,155.5Zm-.3-89.4c.33,0,.43-.07.3-.2,0,.13-.05.17-.15.1s-.15-.13-.15-.2.13,0,.2-.15,0-.18-.1-.25A.87.87,0,0,0,248.69,66.1Zm.7,13.7a8.89,8.89,0,0,0,.1-1.5h-.1a.09.09,0,0,0-.1-.1,2.93,2.93,0,0,0-.1.9A1,1,0,0,0,249.39,79.8Zm4.9-4.3v-.4h-.2C254,75.37,254,75.5,254.29,75.5Zm16-30.3h-.1c0-.07-.07-.07-.2,0s-.07.17-.2.3A.47.47,0,0,0,270.29,45.2Z"/></g></g></svg>